<svg xmlns="http://www.w3.org/2000/svg" enable-background="new 0 0 3000 3000" viewBox="0 0 3000 3000" id="multi-talented-male"><rect width="995.1" height="478.4" x="1002.4" y="1051.4" fill="#e5eaf6"></rect><rect width="575" height="119.1" x="1002.4" y="871.1" fill="#e5eaf6"></rect><path fill="#e5eaf6" d="M1177.2,585.8h-157.1c-30.2,0-54.8-24.6-54.8-54.8v-32.1c0-30.2,24.6-54.8,54.8-54.8h227.7     c30.2,0,54.8,24.6,54.8,54.8V531c0,30.2-24.6,54.8-54.8,54.8h-1.1V649L1177.2,585.8z M1020.1,450.6c-26.6,0-48.3,21.7-48.3,48.3     V531c0,26.6,21.7,48.3,48.3,48.3h159.6l60.5,55v-55h7.6c26.6,0,48.3-21.7,48.3-48.3v-32.1c0-26.6-21.7-48.3-48.3-48.3H1020.1z"></path><path fill="#e5eaf6" d="M1151.9 517.2c-.6 9.9-9.2 17.4-19 16.7-9.9-.6-17.4-9.2-16.7-19 .6-9.9 9.2-17.4 19-16.7C1145 498.8 1152.5 507.3 1151.9 517.2zM1082.7 516c0 9.9-8 17.9-17.9 17.9-9.9 0-17.9-8-17.9-17.9 0-9.9 8-17.9 17.9-17.9C1074.7 498.1 1082.7 506.1 1082.7 516zM1221.1 517.2c-.6 9.9-9.2 17.4-19 16.7-9.9-.6-17.4-9.2-16.7-19 .6-9.9 9.2-17.4 19-16.7C1214.3 498.8 1221.7 507.3 1221.1 517.2z"></path><g><path fill="#b7c9e4" d="M863.2,1571.7l139.3-111.9l151.9,184.6c0,0-210.5,334.5-237.5,326.5C889.8,1962.9,863.2,1571.7,863.2,1571.7z"></path><path fill="#b7c9e4" d="M522.1,944.8c11.7-11.7,115.4-32.9,115.4-32.9s316.5,727.1,332.5,821.4s-50.4,231.4-53.1,237.6   c-2.7,6.2-227.7-80.5-261.4-228.5C621.7,1594.5,522.1,944.8,522.1,944.8z"></path><path fill="#6f95d5" d="M672.7,995.1c-58.7,21.5-113,9.7-143.1-1.6c-4.7-30.6-7.5-48.6-7.5-48.6c11.7-11.7,115.4-33,115.4-33   S648,936.2,672.7,995.1z"></path><polygon fill="#6f95d5" points="1333.6 1225.3 1261.1 1225.3 944.1 1462.9 1136.2 1694.2 1364.7 1458.3"></polygon><path fill="#b7c9e4" d="M2122.8,1331.3l195.9,66.8l-54.2-572.7l123.1-24.4c0,0,241.3,725.8,246.5,849.5   c5.2,123.7-151.2,132.5-204.9,129.4c-53.7-3.2-438.3-185.6-438.3-185.6L2122.8,1331.3z"></path><polygon fill="#6f95d5" points="1333.6 1225.3 1808.5 1225.3 2028.2 2581.5 1194.7 2581.5"></polygon><polygon fill="#6f95d5" points="1808.5 1225.3 1923.2 1235.3 2193 1337.4 2024.7 1707.8 1790.2 1509.5"></polygon><path fill="#b7c9e4" d="M2389,840.9c0,0-107.6,83.8-134.8-22.6c-90.6-45.3-54.7-60.9-54.7-60.9s163.9-5.7,174.9-46.9   c11-41.2,142.9-50,157.8,0C2554.1,783.9,2389,840.9,2389,840.9z"></path><path fill="#6f95d5" d="M2199.5,757.3c0,0,28.4,60.6,128,64.2c99.6,3.6,176.1-50.6,204.7-111.1   C2532.2,710.4,2288.6,719.9,2199.5,757.3z"></path><path fill="#e5eaf6" d="M2095.1,555.2c0,86.8,45,163.1,112.9,207c1.1,0.7,2.2,1.4,3.3,2.1c33.3,20.7,71.9,33.7,113.3,36.5   c0.9,0.1,1.8,0.1,2.7,0.2c1.3,0.1,2.5,0.1,3.8,0.1c3.4,0.2,6.8,0.3,10.2,0.3c43.5,0,84.4-11.3,119.8-31.1c1-0.5,2.1-1.1,3.1-1.7   c31.1-18,58-42.6,78.6-71.9c1.3-1.8,2.5-3.6,3.7-5.4c25.8-39,40.9-85.7,40.9-135.9c0-54.3-17.5-104.5-47.3-145.1   c-0.8-1.1-1.6-2.3-2.5-3.3c-44.9-59.4-116.1-97.7-196.3-97.7c-4.7,0-9.3,0.1-14,0.4c-5.4,0.3-10.7,0.8-15.9,1.4   c-2.8,0.3-5.6,0.7-8.4,1.2c-49.5,7.7-94.2,30.2-129.3,62.9c-0.8,0.7-1.6,1.5-2.4,2.3c-40.6,38.7-67.9,91-74.6,149.7   c-0.5,3.6-0.8,7.4-1.1,11.1C2095.3,543.7,2095.1,549.4,2095.1,555.2z"></path><path fill="#fff" d="M2135.3,555.2c0,77.7,40.2,145.9,100.9,185.1c0.9,0.6,2,1.2,2.9,1.9c29.8,18.5,64.3,30.2,101.4,32.6   c0.8,0.1,1.6,0.1,2.4,0.2c1.1,0.1,2.3,0.1,3.4,0.1c3,0.2,6.1,0.2,9.1,0.2c38.9,0,75.5-10.1,107.2-27.8c0.9-0.5,1.8-1,2.7-1.5   c27.9-16.1,51.8-38.1,70.3-64.3c1.1-1.6,2.2-3.2,3.3-4.9c23.1-34.9,36.6-76.7,36.6-121.5c0-48.5-15.7-93.4-42.3-129.7   c-0.7-1-1.4-2-2.2-3c-40.1-53.1-103.9-87.4-175.6-87.4c-4.2,0-8.3,0.1-12.5,0.4c-4.8,0.2-9.6,0.7-14.3,1.2c-2.5,0.3-5,0.7-7.5,1.1   c-44.3,6.9-84.3,27-115.6,56.2c-0.7,0.7-1.4,1.3-2.1,2c-36.3,34.6-60.7,81.4-66.7,133.9c-0.4,3.3-0.7,6.7-1,10   C2135.5,544.9,2135.3,550,2135.3,555.2z" opacity=".5"></path><path fill="#e5eaf6" d="M2216.8,598.4c0,50.9,26.3,95.6,66.2,121.3c0.6,0.4,1.3,0.8,1.9,1.3c19.5,12.1,42.1,19.8,66.4,21.4   c0.5,0,1,0.1,1.6,0.1c0.7,0,1.5,0.1,2.2,0.1c2,0.1,4,0.2,6,0.2c25.5,0,49.5-6.6,70.2-18.3c0.6-0.3,1.2-0.7,1.8-1   c18.2-10.6,34-25,46.1-42.1c0.7-1,1.4-2.1,2.2-3.2c15.1-22.8,24-50.2,24-79.7c0-31.8-10.3-61.2-27.8-85c-0.5-0.7-0.9-1.3-1.4-1.9   c-26.3-34.8-68.1-57.3-115.1-57.3c-2.7,0-5.5,0.1-8.2,0.2c-3.2,0.2-6.3,0.5-9.3,0.8c-1.6,0.2-3.3,0.4-4.9,0.7   c-29,4.5-55.2,17.7-75.8,36.9c-0.5,0.4-0.9,0.9-1.4,1.3c-23.8,22.6-39.8,53.4-43.7,87.8c-0.3,2.1-0.5,4.4-0.6,6.5   C2216.9,591.7,2216.8,595.1,2216.8,598.4z"></path><path fill="#b7c9e4" d="M2534.4,683.5c-0.3,0-0.3,0-0.3,0c-14.4-8.7-29.5-15.4-44.2-19.5c-30.4-9-60.5-9-87.1,1.6h-0.3   c-4.8,1.9-9.3,4.5-14.1,7c-4.5,2.6-8.6,5.1-12.5,8.3c0,0,0,0,0,0c-4.3-5-8.6-10.1-12.8-15.3c129-111.3,171.2-236.6,177-255.6   c0.5-1.5-2.5-3.3-2.5-3.3s-41.4,135.2-178.7,253.8c-5.2-6.6-10.5-13.2-15.6-20c4.1-2.6,7.9-5.7,11.5-8.9   c41.6-36.5,55.4-103.4,39.1-173.6c-0.6-3.5-1.6-7-2.6-10.6c-6.7-24-16.7-48.7-30.4-72.1c-8-14.1-17-27.2-26.6-39.4   c-7.4-9-14.7-17.3-22.7-25.3c-2.9,0.3-5.8,0.6-8.3,1.3c8,7.7,15.7,16,23.1,25c10.6,12.8,20.5,26.6,29.1,41.6   c14.1,24.3,24.3,49.6,30.1,74.6c0.6,1.3,1,2.2,1,3.5c17.3,70.1,3.8,136.7-38.1,171.3c-2.9,2.6-5.8,4.8-9,7.1c0,0-0.1,0.1-0.1,0.1   c0,0,0,0,0,0c-89.2-117.9-161.3-259.8-162.4-261.9l-3.1,1.6l-2.9,1.5c0.1,0.1,0.2,0.3,0.5,0.8c6,11.8,76.1,147.5,162.3,261.5   c0,0,0,0,0,0c-9.3,5.1-19.2,9-29.5,11.2c-25.3,6.1-52.8,3.2-80.4-7.7c-2.2-0.6-4.5-1.6-6.7-2.6h-0.3c-28.2-12.2-55.7-32-79.7-58.3   c-14.7-15.7-28.2-33.6-39.7-53.8c-0.3-0.3-0.3-0.3-0.6-0.6c-0.3,3.5-0.6,7.4-1,11.2c12.5,20.5,26.9,38.7,42.9,54.4   c12.2,12.5,25.3,23.4,38.7,32.7c11.5,7.7,23.1,14.4,34.9,19.5c4.8,2.2,9.6,4.2,14.4,5.8c17.3,6.1,34.9,9.3,51.6,9.3   c8.6,0,17.3-1,25.6-2.9c11.5-2.2,22.7-6.4,33-12.5c0.3,0,0.6-0.3,1-0.3c0,0,0,0,0.1,0c5.3,7,10.7,13.9,16.1,20.7   c-40.3,34.1-145.9,97.3-145.9,97.3c1.1,0.7,2.2,1.4,3.3,2.1c58.2-27.7,106.6-60.4,146.9-94.3c4.2,5.1,8.4,10.2,12.7,15.2   c0,0,0,0-0.1,0.1c-16.3,14.4-28.5,33.3-35.9,55.4c-3.8,10.2-6.4,21.5-8,33c-1.3,8.6-2.2,17.9-2.2,27.2h2.6c1.3,0.3,2.6,0.3,3.9,0.3   c0-9.3,0.6-18.2,2.2-26.9c1.6-11.9,4.2-22.7,8-33c7.4-20.5,18.6-37.8,33.9-50.9c0,0,0,0,0,0c28.3,32.5,57.4,60.7,85.9,79.9   c0.5,0.3,0.9,0.7,1.3,0.9l1.7-2.7l1.9-2.9c-28.4-19-57.5-46.9-85.7-79.5c3.5-2.9,7.4-5.4,11.2-7.7c5.4-3.2,10.9-5.8,16.6-7.7   c12.2-4.5,25.3-6.7,38.7-6.7c13.1,0,26.3,1.9,39.7,5.8c14.4,4.2,29.1,10.6,43.2,18.9c4.5,2.6,8.6,5.1,12.8,8   c1.3-1.9,2.6-3.8,3.8-5.4C2542.4,688.4,2538.5,685.8,2534.4,683.5z"></path><path fill="#6f95d5" d="M609.5,668.6v361.4c0,11-9,20-20.1,20c-11,0-20-9-20-20V668.6c0-11.1,9-20.1,20-20.1       C600.6,648.6,609.5,657.5,609.5,668.6z"></path><path fill="#6f95d5" d="M766.4,1352.8c-52.2-51.9-45-139.9,18.6-176.9c0.6-0.4,1.2-0.7,1.8-1c24.6-13.7,32.1-46.2,14.1-67.9     c-47.5-57.5-136.1-87.9-212.1-89.8c-73.8,2.7-167.5,30.9-211.1,90c-16.1,21.9-9.7,53.7,14.4,66.2c4.7,2.5,9.2,5.2,13.5,8.1     c57.3,39.7,61.2,122.2,11.9,171.5c-48.8,48.7-77.3,117.8-71.7,193.4c8.9,121.3,107.4,219.3,228.8,227.7     c144.3,10,264.5-104.2,264.5-246.4C839.2,1459.3,811.4,1397.5,766.4,1352.8z"></path><circle cx="590.8" cy="1499.6" r="120.8" fill="#274675" transform="rotate(-45.001 590.796 1499.604)"></circle><rect width="1.9" height="1042.2" x="578.6" y="647" fill="#e5eaf6"></rect><rect width="1.9" height="1042.2" x="589.4" y="647" fill="#e5eaf6"></rect><rect width="1.9" height="1042.2" x="600.3" y="647" fill="#e5eaf6"></rect><path fill="#6f95d5" d="M629.6,644.6c0,22.1-18,40.1-40.1,40.1c-22.1,0-40.1-18-40.1-40.1c0-4.8,0.8-9.3,2.4-13.5      c1.2-2,2.3-4,3.3-6.1c0.6-1.1,1.2-2.3,1.7-3.4c7.2-15.3,11.1-32.5,11.1-50.6v-0.2c6.2-4,13.6-6.3,21.6-6.3      c8.3,0,16.1,2.6,22.5,6.9c0.1,19,4.5,36.9,12.4,52.8c0,0.1-0.1,0.3-0.2,0.4C627.6,630.4,629.6,637.3,629.6,644.6z"></path><path fill="#b7c9e4" d="M622.5 1671.1H556c-6.7 0-12.2 5.5-12.2 12.2 0 6.7 5.5 12.2 12.2 12.2h66.5c6.7 0 12.2-5.5 12.2-12.2C634.7 1676.6 629.2 1671.1 622.5 1671.1zM477.1 406.3l-2.4 30.7L455 565.9c-19.3-21.3-59.9-42-81.3-28.9-26.9 16.5-28.1 58.6 29.5 61.1 30.9 1.3 66.4-.9 61.9-16.2-.1-.5-.3-1-.5-1.5l13-138.3c0 0 20.5-22.8 53.9-12.9C531.4 429.3 526.5 398.8 477.1 406.3zM359.1 820.9l7.8 15.3 27.9 67c-15.4-4.5-40.6-2.6-47.1 9.8-8.1 15.6 3.6 36 31.7 20.5 15.1-8.3 31.3-19.7 24.7-25.6-.2-.2-.4-.4-.7-.5l-33.8-69.6c0 0 3.1-16.8 21.9-21.7C391.5 816.1 380.4 803 359.1 820.9zM819.2 546.6l-4.7 22.2-26.9 92c-12-17.4-39.6-36.4-56.5-29-21.2 9.4-26.2 40 15.5 47.4 22.4 4 48.5 5.8 46.7-5.8-.1-.4-.2-.7-.2-1.1l23-99.5c0 0 17.1-14.6 40.5-4.2C856.6 568.6 856 545.9 819.2 546.6z"></path><g><path fill="#b7c9e4" d="M476.9,862.1c1.5,2.8,11.9,4.7,11.9,4.7s-10.5,1-12.7,3.5c-6.9,8.1-9.7,32.7-4.9,42.2c2.1,4.1,15.8,9,15.8,9     l-9.6,3.1c0,0-8.1,22.2,3.3,33.6c8.2,2.2,137.1,30.4,162.4,17.9c6.8-3.4,16.5-26.6,16.5-26.6s-32-13.1-34.3-14     c25.3-0.6,37.6,4.5,52.1-2.3c7.6-3.6,17.7-27.1,17.7-27.1s-41.4-12.9-53.5-19c18.8,0,53.4,5.2,62.8-1c7-4.6,11.1-27.9,11.1-27.9     s-40.2-9.3-58.7-14.9c27.8-3.3,44.2,2,52.8-8.5c5.3-6.5,8.3-26.7,8.3-26.7s-110.9-39.8-151.7-40.3c-7.1-0.1-58.3,11.7-68.3,18.7     c-6.4,4.5-6.1,21.5-6.1,21.5l5.6,6.9c0,0-10.1,2.4-12.2,5C478.2,828.1,471.7,852.7,476.9,862.1z"></path><path fill="#6f95d5" d="M589.4 828.8c.3-2.4 17.9-1.7 38.8 2.9 20.9 4.5 37.2 10.6 36.7 12.9-.6 2.3-17.7.1-38.5-4.4C605.7 835.6 589.1 831.1 589.4 828.8zM579 876.6c.3-2.4 16.4-1.5 36 2.1 19.5 3.5 35 8.3 34.4 10.6-.5 2.3-16.6 1.4-36-2.1C594.1 883.8 578.7 879 579 876.6zM566.2 925.1c.4-2.4 14.4-1.8 31.1 1.2 16.7 3.1 30 7.4 29.5 9.8-.4 2.4-14.4 1.8-31.1-1.2C579 931.8 565.8 927.5 566.2 925.1z"></path><path fill="#fff" d="M624.6 941.8c0 0-14.7 11.3-6.2 26.4 0 0 26.7 5.8 31.3-7.1C654.3 948.3 624.6 941.8 624.6 941.8zM657.6 901.5c0 0-14.7 11.3-6.2 26.4 0 0 26.7 5.8 31.3-7.1C687.3 908 657.6 901.5 657.6 901.5zM679.3 853.7c0 0-14.7 11.3-6.2 26.4 0 0 26.7 5.8 31.3-7.1C709 860.2 679.3 853.7 679.3 853.7zM686.3 800.9c0 0-14.7 11.3-6.2 26.4 0 0 26.7 5.8 31.3-7.1C716 807.4 686.3 800.9 686.3 800.9z" opacity=".5"></path></g><path fill="#e5eaf6" d="M2561.1 793.2c34.8-35.3 39.1-111.3 42.9-120.9s7.6-6.2 10 0c2.4 6.2 12.4 40.9 3.3 70.9-9 30-40 58.7-54.3 63.3C2548.8 811.2 2553.3 801.1 2561.1 793.2zM2079.6 695.9c-34.8-35.3-39.1-111.3-42.9-120.9-3.8-9.5-7.6-6.2-10 0-2.4 6.2-12.4 40.9-3.3 70.9 9 30 40 58.7 54.3 63.3C2091.9 713.9 2087.3 703.8 2079.6 695.9z"></path><path fill="#fff" d="M1101.3,1240.1c30.9-38.8,105.8-52.3,114.8-57.2c9-4.9,5.2-8.3-1.2-9.9c-6.4-1.6-42.1-7.3-70.8,5.3   c-28.7,12.6-53.4,46.8-56.3,61.5C1084.9,1254.5,1094.4,1248.8,1101.3,1240.1z"></path></g><g><path fill="#27324f" d="M1642,1197.8c0,0,233.4,86.4,406.2,103.7c172.9,17.3,386.5-81.2,539,51.6c0,0,12.8-121.1-275-99.5   C1909.2,1283.9,1644.8,1145.2,1642,1197.8z"></path><path fill="#f2a891" d="M926,1707.2c0,0-142.5,286.2-134.8,368.7c7.7,82.6,207.5,80.3,233.3,77.4c25.8-2.8,175.8-389.2,109.5-412.3   C1067.7,1718,926,1707.2,926,1707.2z"></path><path fill="#274675" d="M1333.6,1225.3l-77.2,30c0,0-386.5,382.4-380.7,438.9c5.8,56.4,391.2,230.9,391.2,230.9   s110.8-433.3,123.9-449.8C1403.8,1458.7,1333.6,1225.3,1333.6,1225.3z"></path><path fill="#febea5" d="M2312.5,1844.8l-154.3-278.3c-31,33.4-134.6,45.3-215.4,133.4c42.2,82.9,146.6,254.5,229.8,343.4   C2289.8,2168.4,2312.5,1844.8,2312.5,1844.8z"></path><path fill="#274675" d="M1850.9,1225.3l133,54.8l256.3,309c0,0-207.3,225.6-273.6,246.7c-52.8-111.7-88.3-225.1-88.3-225.1   L1850.9,1225.3z"></path><polygon fill="#274675" points="1333.6 1225.3 961.4 2580.4 2193 2580.4 1850.9 1225.3"></polygon><path fill="#2e2e2e" d="M1793.6,698.8c14.6-14.5,23.6-34.7,23.6-56.9c0-44.4-36-80.3-80.3-80.3c-8.7,0-17.1,1.4-24.9,4     c-8.2-54-54.6-95.5-110.9-95.5c-41.4,0-77.4,22.4-96.9,55.7c-17.5-10.5-38-16.7-59.9-16.7c-64.4,0-116.7,52.2-116.7,116.7     c0,5.4,0.5,10.7,1.2,16c-28.5,13-48.3,41.7-48.3,75.1c0,42.1,31.5,76.7,72.2,81.9c-0.3,2.6-0.5,5.2-0.5,7.8     c0,38.7,31.4,70.1,70.1,70.1c30.9,0,57.1-20.1,66.4-47.9c29.1,28.1,68.7,45.5,112.4,45.5c41,0,78.2-15.3,106.7-40.4     c15.1,16.1,36.5,26.2,60.3,26.2c45.7,0,82.7-37,82.7-82.7C1850.9,740.7,1826.8,709.6,1793.6,698.8z"></path><path fill="#febea5" d="M1491.2,1213c0,0,34.3,33,96.1,33.4c61.8,0.4,100.2-30.3,100.2-30.3s-8.5-60.8-14.8-105.7       c-3.7-27.2-6.7-49.5-7-53.1l-154.9-0.9l-8.7,69.2L1491.2,1213z"></path><path fill="#f2a891" d="M1502.1,1125.5c24.6,25.3,53.6,42.7,77.1,42.8c28.4,0.2,65.4-24.6,93.5-57.9c-3.7-27.2-6.7-49.5-7-53.1       l-154.9-0.9L1502.1,1125.5z"></path><path fill="#febea5" d="M1416.6,778.4c0,0-27.5-24.9-65.7-7.7c-41.7,18.8,11.8,124.7,38.8,124.7c26.1,0,31.1-14.5,30.5-34.8          C1419.3,825.9,1416.6,778.4,1416.6,778.4z"></path><path fill="#f2a891" d="M1403,893.8c11.4-55.7-4.8-105.5-14.4-128.1c17.3,3.1,28,12.8,28,12.8s2.7,47.5,3.7,82.3          C1420.7,876.9,1417.6,889.4,1403,893.8z"></path><path fill="#2e2e2e" d="M1372.9,790.7c12.7,8.5,36.8,38.5,23.8,63.2c0,0-0.9-16-10-25.2l-22-8.5l21.3-2.9L1372.9,790.7z"></path><path fill="#febea5" d="M1738.3,778.4c0,0,27.5-24.9,65.7-7.7c41.7,18.8-11.8,124.7-38.8,124.7c-26.1,0-31.1-14.5-30.5-34.8          C1735.6,825.9,1738.3,778.4,1738.3,778.4z"></path><path fill="#f2a891" d="M1751.9,893.8c-11.4-55.7,4.8-105.5,14.4-128.1c-17.3,3.1-28,12.8-28,12.8s-2.7,47.5-3.7,82.3          C1734.2,876.9,1737.2,889.4,1751.9,893.8z"></path><path fill="#2e2e2e" d="M1782,790.7c-12.7,8.5-36.8,38.5-23.8,63.2c0,0,0.9-16,10-25.2l22-8.5l-21.3-2.9L1782,790.7z"></path><path fill="#febea5" d="M1734.8,715.1c-0.5-3.3-1.6-6.5-3.1-9.4c-30.8-55.6-255.7-57.7-301.4-6.5c-4.4,4.7-14.1,4.9-14.9,10.7         c0,0-44.4,394.9,163.3,402.9C1799.4,1121.1,1734.8,715.1,1734.8,715.1z"></path><path fill="#f2a891" d="M1690.8 925c1.7 10-9.2 20.1-24.3 22.7-15.1 2.5-28.7-3.5-30.4-13.5-1.7-10 9.2-20.1 24.3-22.7C1675.5 909 1689.1 915.1 1690.8 925zM1465.7 925c-1.7 10 9.2 20.1 24.3 22.7 15.1 2.5 28.7-3.5 30.4-13.5 1.7-10-9.2-20.1-24.3-22.7C1480.9 909 1467.3 915.1 1465.7 925z"></path><path fill="#2e2e2e" d="M1423.8,937.7c0,0,52.7,20.8,65.5,56.1c0,0,28.9-20.2,101.1-20.2c72.1,0,78.8,24.3,78.8,24.3         s20.2-41.2,65.8-49.7c0,0-5.3,169.2-146.7,169.2C1465.5,1117.3,1412.1,984.5,1423.8,937.7z"></path><path fill="#fff" d="M1619,1013.7c-65.1,28.6-75.5-14.6-87.4,4.6c-7.3,11.7,19.4,42.1,53.1,42.1         C1625.7,1055.7,1630.9,1008.4,1619,1013.7z"></path><path fill="#2e2e2e" d="M1474.3 688.7c0 0 132.9 68.7 270.7 41.1 137.7-27.7-197.1-148.6-277.9-108.5-80.8 40.1-67.5 133.1-67.5 133.1S1465.8 742.5 1474.3 688.7zM1570.9 933c-5.5-12.3 2.6-26.4 2.9-26.9 1.6-2.7 5.1-3.7 7.9-2.1 2.8 1.6 3.7 5.1 2.1 7.9-1.6 2.7-4.8 11-2.2 16.8 2 4.2 7.3 6.9 15.7 8.2 3.1.5 5.3 3.4 4.9 6.5-.5 3.2-3.4 5.3-6.5 4.9-12.4-1.8-20.6-6.7-24.4-14.6C1571.1 933.4 1571 933.2 1570.9 933zM1679 858.4c0 10.1-6.9 18.2-15.5 18.2-8.5 0-15.4-8.2-15.4-18.2 0-10.1 6.9-18.3 15.4-18.3 2.4 0 4.6.6 6.7 1.8-3 .9-5.3 4.1-5.3 8 0 4.5 3.2 8.3 7 8.3 2.8 0 5.3-2 6.4-4.9C1678.8 855 1679 856.7 1679 858.4zM1520.2 856.1c0 10.1-6.9 18.2-15.5 18.2-8.5 0-15.5-8.2-15.5-18.2 0-10.1 6.9-18.3 15.5-18.3 2.4 0 4.6.6 6.7 1.8-3 .9-5.3 4.1-5.3 8 0 4.5 3.2 8.3 7 8.3 2.8 0 5.3-2 6.4-4.9C1520 852.7 1520.2 854.4 1520.2 856.1zM1540.4 821.5c0 0-58.7-3-64.6-8.7-5.9-5.8 12.5-18 38.4-11.4C1540 807.9 1547.2 821.3 1540.4 821.5zM1631.9 821.5c0 0 58.7-3 64.6-8.7 5.9-5.8-12.5-18-38.4-11.4C1632.3 807.9 1625.2 821.3 1631.9 821.5z"></path><path fill="#fff" d="M1459.5,1225.3l35.3-41.5c0,0,22.5,30.1,92.2,32.4c69.7,2.3,96.1-30.8,96.1-30.8l33.7,40.3    c0,0-6.4,96.3-44.2,100.9c-37.8,4.5-75.6-47.6-75.6-47.6s-31.3,46.7-77.4,47.9C1473.6,1328.1,1459.5,1225.3,1459.5,1225.3z"></path><path fill="#27324f" d="M1472.9,1209.6c0,0-78,73.2,138.1,151c216.1,77.8,642.5-61.2,768.4,26.1c0,0-8,16.1-23.2,16.1   c-15.1,0-168.3-48.7-451.4,9.7C1621.8,1470.8,1292.1,1279.4,1472.9,1209.6z"></path><g><path fill="#274675" d="M2291.3,1443.2c-4.9-20,7.4-40.2,27.4-45.1l287.8-70.2c20-4.9,40.2,7.4,45.1,27.4l41.3,169.2     c4.9,20-7.4,40.2-27.4,45.1l-287.8,70.2c-20,4.9-40.2-7.4-45.1-27.4L2291.3,1443.2z"></path><rect width="393.5" height="199" x="2295.3" y="1384.3" fill="#6f95d5" transform="rotate(166.288 2492.086 1483.79)"></rect><path fill="#eaf6fc" d="M2455.3,1495.1c9.8,40,50.1,64.6,90.2,54.8c40-9.8,64.6-50.1,54.8-90.2c-9.8-40-50.1-64.6-90.2-54.8     C2470,1414.7,2445.5,1455.1,2455.3,1495.1z"></path><path fill="#274675" d="M2476.5,1489.9c5.8,23.7,26.8,39.8,50.1,40.2c4.5,0.1,9.1-0.4,13.7-1.5c3.1-0.8,6.1-1.8,8.9-3.1     c1.6-0.7,3.2-1.5,4.7-2.4c6.9-3.9,12.6-9.2,17.1-15.5c8.4-12,11.8-27.5,8.1-42.8c-5.8-23.7-26.8-39.8-50.1-40.2     c-4.5-0.1-9.1,0.4-13.7,1.5c-3.1,0.8-6.1,1.8-8.9,3.1c-1.6,0.7-3.2,1.5-4.7,2.4c-6.9,3.9-12.6,9.2-17.1,15.5     C2476.1,1459.1,2472.7,1474.6,2476.5,1489.9z"></path><rect width="45.2" height="45.2" x="2342.7" y="1366.4" fill="#e5eaf6" transform="rotate(166.288 2365.39 1388.99)"></rect></g><g><path fill="#febea5" d="M2487,1733.2c-2.9-1.2-5.9-11.2-5.9-11.2s0.2,10.4-2.1,12.8c-7.2,7.6-31,13-40.8,9.3     c-4.2-1.6-10.5-14.5-10.5-14.5l-2,9.8c0,0-20.9,10.3-33.3,0.3c-3.1-7.8-44.4-131-34.8-157.1c2.6-7,24.3-19,24.3-19     s16.2,30,17.4,32.1c-2.1-24.9-8.4-36.3-3.3-51.3c2.7-7.8,24.7-20.2,24.7-20.2s17,39.1,24.3,50.4c-2-18.4-10.8-51.8-5.7-61.6     c3.8-7.4,26.1-13.8,26.1-13.8s13.3,38.4,20.9,55.9c0.3-27.6-6.7-43.1,2.7-52.6c5.8-5.8,25.3-10.9,25.3-10.9     s50.7,104.4,55.6,144.3c0.9,7-5.2,58.4-11,68.9c-3.7,6.7-20.4,8.3-20.4,8.3l-7.4-4.8c0,0-1.3,10.2-3.6,12.5     C2520.2,1728.3,2496.8,1737.3,2487,1733.2z"></path><path fill="#f2a891" d="M2507.7 1619.4c2.3-.6-.2-17.7-7-37.7-6.6-20-14.3-35.3-16.5-34.5-2.2.8 1.8 17.4 8.4 37.2C2499.2 1604.3 2505.4 1620 2507.7 1619.4zM2462 1634.7c2.3-.6-.3-16.2-5.8-35s-11.8-33.3-14.1-32.6c-2.2.8.4 16.4 5.8 35C2453.4 1620.7 2459.7 1635.3 2462 1634.7zM2415.8 1652.5c2.3-.7.2-14.3-4.5-30.3-4.8-16.1-10.5-28.6-12.8-27.9-2.3.7-.2 14.3 4.5 30.3C2407.9 1640.6 2413.6 1653.1 2415.8 1652.5z"></path><path fill="#fff" d="M2393.3 1597c0 0-9.5 15.6-25.2 8.9 0 0-8.5-25.5 3.6-31.4C2383.8 1568.6 2393.3 1597 2393.3 1597zM2429.2 1560.5c0 0-9.5 15.6-25.2 8.9 0 0-8.5-25.5 3.6-31.4S2429.2 1560.5 2429.2 1560.5zM2473.7 1534.1c0 0-9.5 15.6-25.2 8.9 0 0-8.5-25.5 3.6-31.4C2464.2 1505.7 2473.7 1534.1 2473.7 1534.1zM2524.6 1521.7c0 0-9.5 15.6-25.2 8.9 0 0-8.5-25.5 3.6-31.4C2515.1 1493.3 2524.6 1521.7 2524.6 1521.7z" opacity=".5"></path></g><g><path fill="#b7c9e4" d="M1596,1354.2l124.8,909.2c2,14.4-8.2,27.8-22.6,29.8l-652.7,89.6c-14.4,2-27.8-8.2-29.8-22.6L890.8,1451         c-2-14.4,8.2-27.8,22.6-29.8l652.7-89.6C1580.6,1329.6,1594,1339.7,1596,1354.2z"></path><path fill="#e5eaf6" d="M1547,1380.1l-603,82.8c-11.4,1.6-19.4,12.1-17.9,23.5l97.6,605.3c1.6,11.4,160.7,243.4,172.2,241.8        l472.4-69.4c11.4-1.6,19.4-12.1,17.9-23.5L1570.6,1398C1569,1386.5,1558.4,1378.5,1547,1380.1z"></path><rect width="144.8" height="181.5" x="1215.8" y="1601" fill="#fff" transform="rotate(-6.949 1288.197 1691.83)"></rect><polygon fill="#b7c9e4" points="1266.3 1688 1307.8 1682.9 1362.4 1774.2 1239.2 1789.2"></polygon><path fill="#6f95d5" d="M1300.8,1631.2c1.3-1.6,1.9-3.7,1.7-5.9c-0.5-4.4-4.6-7.6-9-7c-0.9,0.1-1.7,0.3-2.4,0.7            c-1.5-5.3-6.6-8.8-12.2-8.1c-4.1,0.5-7.4,3.2-9,6.7c-1.9-0.8-4-1.2-6.2-0.9c-6.4,0.8-11,6.6-10.2,13            c0.1,0.5,0.2,1.1,0.3,1.6c-2.7,1.6-4.3,4.7-3.9,8.1c0.5,4.2,4.1,7.3,8.2,7.3c0,0.3,0,0.5,0,0.8c0.5,3.9,4,6.6,7.8,6.1            c3.1-0.4,5.4-2.7,6-5.6c3.2,2.4,7.4,3.7,11.7,3.2c4.1-0.5,7.6-2.5,10.1-5.3c1.7,1.4,3.9,2.2,6.3,1.9            c4.5-0.6,7.8-4.7,7.2-9.2C1307,1634.7,1304.2,1631.9,1300.8,1631.2z"></path><path fill="#b7c9e4" d="M1277.9,1684.9c0,0,3.2,2.4,8.5,1.8c5.2-0.6,8.2-3.6,8.2-3.6s-1.3-5-2.3-8.8              c-0.6-2.3-1.1-4.1-1.1-4.4l-13.1,1.5l0,5.9L1277.9,1684.9z"></path><path fill="#6f95d5" d="M1278,1677.4c2.3,1.9,5,3.1,7,2.8c2.4-0.3,5.3-2.7,7.3-5.9c-0.6-2.3-1.1-4.1-1.1-4.4l-13.1,1.5              L1278,1677.4z" opacity=".2"></path><path fill="#b7c9e4" d="M1264.3,1643.7c0,0-3-2.1-6.6,0c-3.9,2.4,2.7,12.3,5.4,11.9c2.6-0.3,2.9-1.8,2.6-3.8                 C1265.1,1648.4,1264.3,1643.7,1264.3,1643.7z"></path><path fill="#6f95d5" d="M1264.3,1655.3c0.5-5.7-1.8-10.4-3-12.6c1.8,0.1,2.9,0.9,2.9,0.9s0.8,4.7,1.4,8.1                 C1265.9,1653.4,1265.7,1654.7,1264.3,1655.3z"></path><path fill="#6f95d5" d="M1260.1,1645.4c1.4,0.7,4.1,3.4,3.1,6c0,0-0.3-1.6-1.3-2.4l-2.3-0.6l2.1-0.5L1260.1,1645.4z"></path><path fill="#b7c9e4" d="M1296.3,1639.8c0,0,2.4-2.8,6.4-1.6c4.4,1.4,0.3,12.5-2.3,12.9c-2.6,0.3-3.3-1.1-3.5-3.1                 C1296.6,1644.5,1296.3,1639.8,1296.3,1639.8z"></path><path fill="#6f95d5" d="M1299,1651.1c-1.8-5.4-0.8-10.6-0.1-12.9c-1.7,0.5-2.6,1.6-2.6,1.6s0.3,4.8,0.6,8.2                 C1297,1649.6,1297.5,1650.8,1299,1651.1z"></path><path fill="#6f95d5" d="M1300.7,1640.5c-1.2,1-3.2,4.3-1.6,6.6c0,0-0.1-1.6,0.7-2.6l2.1-1.1l-2.2,0L1300.7,1640.5z"></path><path fill="#b7c9e4" d="M1295.1,1633.5c-0.1-0.3-0.2-0.6-0.4-0.9c-3.7-5.2-26.1-2.6-30.1,3c-0.4,0.5-1.3,0.7-1.4,1.2                c0,0,0.4,39.8,21.1,38.1C1306.5,1673.1,1295.1,1633.5,1295.1,1633.5z"></path><path fill="#6f95d5" d="M1293.3 1655c.3 1-.7 2.1-2.1 2.5-1.5.4-2.9 0-3.2-1-.3-1 .7-2.1 2.1-2.5C1291.6 1653.5 1293 1654 1293.3 1655zM1270.9 1657.7c0 1 1.2 1.9 2.7 2 1.5.1 2.8-.7 2.9-1.7 0-1-1.2-1.9-2.7-2C1272.2 1655.9 1271 1656.7 1270.9 1657.7z" opacity=".2"></path><path fill="#6f95d5" d="M1266.9,1659.4c0,0,5.5,1.4,7.2,4.8c0,0,2.6-2.4,9.8-3.2c7.2-0.9,8.1,1.5,8.1,1.5                s1.5-4.3,5.9-5.7c0,0,1.5,16.9-12.5,18.6C1273.2,1676.8,1266.3,1664.2,1266.9,1659.4z"></path><path fill="#b7c9e4" d="M1287.2,1664.6c-6.1,3.6-7.7-0.5-8.6,1.5c-0.6,1.3,2.4,4,5.8,3.5                C1288.4,1668.7,1288.4,1664,1287.2,1664.6z"></path><path fill="#6f95d5" d="M1268.9 1634.1c0 0 14.1 5.2 27.4.8 13.4-4.4-21.4-12.4-29-7.4-7.6 5-5.1 14.1-5.1 14.1S1268.7 1639.5 1268.9 1634.1zM1281.5 1657.2c-.7-1.2-.1-2.7 0-2.7.1-.3.5-.4.8-.3.3.1.4.5.3.8-.1.3-.3 1.1 0 1.7.3.4.8.6 1.7.6.3 0 .6.3.6.6 0 .3-.3.6-.6.6C1282.9 1658.4 1282 1658 1281.5 1657.2 1281.5 1657.2 1281.5 1657.2 1281.5 1657.2zM1291.3 1648.5c.1 1-.5 1.9-1.3 2-.8.1-1.6-.6-1.8-1.6-.1-1 .5-1.9 1.3-2 .2 0 .5 0 .7.1-.3.1-.5.5-.4.9.1.5.4.8.8.7.3 0 .5-.3.6-.6C1291.3 1648.1 1291.3 1648.3 1291.3 1648.5zM1275.5 1650.2c.1 1-.5 1.9-1.3 2-.8.1-1.6-.6-1.8-1.6-.1-1 .5-1.9 1.3-2 .2 0 .5 0 .7.1-.3.1-.5.5-.4.9.1.5.4.8.8.7.3 0 .5-.3.6-.6C1275.4 1649.8 1275.5 1650 1275.5 1650.2zM1277.1 1646.5c0 0-5.9.4-6.5-.1-.7-.5 1-1.9 3.7-1.6C1276.9 1645.1 1277.8 1646.4 1277.1 1646.5zM1286.2 1645.4c0 0 5.8-1 6.3-1.7.5-.6-1.5-1.6-4-.7C1286.1 1644 1285.5 1645.4 1286.2 1645.4zM1275.4 1686.2l2.6-3.9c0 0 2.2 2.3 8.1 1.8 5.9-.5 7.8-3.6 7.8-3.6l3.3 3.1c0 0 .4 8.2-2.7 9-3.1.8-6.9-3.2-6.9-3.2s-2.2 4.3-6 4.8C1277.6 1694.8 1275.4 1686.2 1275.4 1686.2z"></path><polygon fill="#b7c9e4" points="1236.3 1745.5 1230.3 1766.9 1225.2 1773.9 1227.3 1790.6 1239.2 1789.2 1253.1 1749.9"></polygon><polygon fill="#b7c9e4" points="1350.6 1731.6 1361.5 1750.9 1368.1 1756.5 1370.2 1773.2 1358.2 1774.7 1335.3 1739.8"></polygon><path fill="#b7c9e4" d="M1266.3 1688l-6.8 4.7-29.1 53.7 43.4 13.9c0 0 6.3-47.4 5.8-48.4C1279 1710.9 1266.3 1688 1266.3 1688zM1307.6 1682.9l7.7 2.9 41.2 45.1-38.8 23.9c0 0-17.5-44.5-17.2-45.6C1300.9 1708.2 1307.6 1682.9 1307.6 1682.9z"></path><path fill="#6f95d5" d="M1239.2,1789.2l16.2-60.5C1255.4,1728.7,1237.9,1777.6,1239.2,1789.2z"></path><path fill="#6f95d5" d="M1231 1746.6c0 0 16.8 4.1 17.3 5.6C1248.7 1753.6 1231 1746.6 1231 1746.6zM1325.8 1715.4c.6 1.8 32.2 47 36.6 58.8C1355.8 1768.6 1325.8 1715.4 1325.8 1715.4z"></path><path fill="#6f95d5" d="M1339.6,1739.3c0,0,16.7-9.8,16.9-8.3c0.3,1.4-15.9,10.1-15.9,10.1L1339.6,1739.3z"></path><g><path fill="#b7c9e4" d="M1115.9 1526.3l1.1 9.1c1.4 11.2-4.4 18.1-17.7 19.7l-6.3.8 3.2 26.3-13.3 1.6-8.5-70 19.6-2.4C1107.3 1509.8 1114.5 1515.1 1115.9 1526.3zM1088.9 1522.2l2.9 23.7 6.3-.8c4.2-.5 6.3-2.4 5.7-7.4l-1.3-10.5c-.6-5-3.1-6.3-7.3-5.8L1088.9 1522.2zM1121.5 1525.2c-1.4-11.2 5-18.5 18.1-20.1 13.1-1.6 21 3.9 22.4 15.1l4.4 36.4c1.4 11.2-5 18.5-18.1 20.1-13.1 1.6-21-3.9-22.3-15.1L1121.5 1525.2zM1139.4 1560.6c.6 5 3.5 6.6 7.7 6.1 4.2-.5 6.7-2.7 6.1-7.7l-4.6-37.8c-.6-5-3.5-6.6-7.7-6.1-4.2.5-6.7 2.7-6.1 7.7L1139.4 1560.6zM1204.8 1569c-.9-1.7-1.6-2.8-2.3-8.4l-1.3-11c-.8-6.5-3.7-8.6-9.8-7.8l-4.6.6 3.5 28.5-13.3 1.6-8.5-70 20.1-2.4c13.8-1.7 20.4 2.9 21.7 13.7l.7 5.5c.9 7.2-1.3 12.2-7 15.3 6.9 1.5 9.8 6.5 10.6 13.8l1.3 10.8c.4 3.4.8 5.9 2.5 8.3L1204.8 1569zM1183 1510.8l2.6 21.5 5.2-.6c5-.6 7.8-2.8 7.1-8.4l-.8-6.9c-.6-5-2.9-7-7.7-6.4L1183 1510.8zM1213.3 1496.9l41.1-5 1.2 10-13.9 1.7 7.3 60-13.3 1.6-7.3-60-13.9 1.7L1213.3 1496.9zM1277.3 1520.7l17.2-2.1 1.2 10-17.2 2.1 3.5 28.9-13.3 1.6-8.5-70 35.2-4.3 1.2 10-21.9 2.7L1277.3 1520.7zM1302.8 1503.1c-1.4-11.2 5-18.5 18.1-20.1 13.1-1.6 21 3.9 22.4 15.1l4.4 36.4c1.4 11.2-5 18.5-18.1 20.1-13.1 1.6-21-3.9-22.3-15.1L1302.8 1503.1zM1320.6 1538.5c.6 5 3.5 6.6 7.7 6.1 4.2-.5 6.7-2.7 6.1-7.7l-4.6-37.8c-.6-5-3.5-6.6-7.7-6.1-4.2.5-6.7 2.7-6.1 7.7L1320.6 1538.5zM1349.7 1480.3l13.3-1.6 7.3 60 21.9-2.7 1.2 10-35.2 4.3L1349.7 1480.3zM1390.8 1475.3l13.3-1.6 8.5 70-13.3 1.6L1390.8 1475.3zM1414.7 1489.4c-1.4-11.2 5-18.5 18.1-20.1 13.1-1.6 21 3.9 22.4 15.1l4.4 36.4c1.4 11.2-5 18.5-18.1 20.1-13.1 1.6-21-3.9-22.3-15.1L1414.7 1489.4zM1432.5 1524.9c.6 5 3.5 6.6 7.7 6.1 4.2-.5 6.7-2.7 6.1-7.7l-4.6-37.8c-.6-5-3.5-6.6-7.7-6.1-4.2.5-6.7 2.7-6.1 7.7L1432.5 1524.9z"></path></g><g><rect width="488.4" height="178.6" x="1098.3" y="2038.9" fill="#b7c9e4" opacity=".5" transform="rotate(173.051 1342.303 2127.89)"></rect><rect width="235.8" height="32" x="1188.6" y="1838" fill="#b7c9e4" transform="rotate(173.051 1306.4 1853.801)"></rect><rect width="235.8" height="32" x="1328.1" y="1938.3" fill="#b7c9e4" transform="rotate(173.051 1445.802 1954.102)"></rect><rect width="217.7" height="32" x="1077.4" y="1970" fill="#b7c9e4" opacity=".5" transform="rotate(173.051 1186.112 1985.758)"></rect><rect width="311.2" height="32" x="1245.8" y="1884.6" fill="#b7c9e4" opacity=".5" transform="rotate(173.051 1401.252 1900.315)"></rect><rect width="142.2" height="32" x="1070.6" y="1916.2" fill="#b7c9e4" opacity=".5" transform="rotate(173.051 1141.565 1931.97)"></rect></g><path fill="#fff" d="M1022,2086c0,0,101.4,126.9,265,95.1c0,0,0.4,93.3-91.1,152.5C1196,2333.5,1064.8,2216.2,1022,2086z"></path><g><path fill="#febea5" d="M823.4,1980.3c2.7,2.9,15.6,2,15.6,2s-12.2,4.4-14,8c-5.8,11.7-1.6,41.9,7,51.7c3.7,4.2,21.6,5.9,21.6,5.9      l-10.5,6.6c0,0-2.8,28.9,14.2,39c10.5,0.1,172.5-5.7,198.8-28.3c7.1-6.1,11.6-36.7,11.6-36.7s-42.1-5.8-45.1-6.2      c30-8.5,46.1-6.2,61.3-18.6c8-6.6,12.8-37.7,12.8-37.7s-53.1-2.7-69.5-6.3c22.4-5.7,65.2-10.1,74.4-20.4      c6.9-7.6,4.7-36.6,4.7-36.6s-50.6,1.2-74.4,0.1c32.1-12.4,53.2-11.1,60.2-26.2c4.3-9.3,1.7-34.3,1.7-34.3s-144.2-13.5-192.9-1.6      c-8.5,2-65.9,31.7-75.6,43.1c-6.2,7.3-0.7,27.4-0.7,27.4l8.8,6.5c0,0-11.3,6-13,9.6C814.6,1939.4,814.3,1970.6,823.4,1980.3z"></path><path fill="#f2a891" d="M947.2 1906.3c-.4-3 20.8-7.5 47.1-8.4 26.2-1 47.5 1.2 47.6 4.2 0 3-21.1 5.5-47.1 6.5C968.6 1909.4 947.5 1909.1 947.2 1906.3zM949.4 1966.3c-.3-2.9 19.1-6.8 43.4-8.5 24.3-1.8 44.1-.8 44.2 2.1.1 3-19.3 6.8-43.4 8.5C969.5 1970.2 949.7 1969.3 949.4 1966.3zM948.9 2028c-.2-2.9 16.5-6.5 37.4-8 20.9-1.5 38-.3 38.2 2.7.2 2.9-16.5 6.5-37.4 8C966.2 2032.1 949.1 2030.9 948.9 2028z"></path><path fill="#fff" d="M1023.5 2030c0 0-14 18 .6 33.3 0 0 33.5-1.3 35.1-18C1060.8 2028.7 1023.5 2030 1023.5 2030zM1050.5 1972c0 0-14 18 .6 33.3 0 0 33.5-1.3 35.1-18C1087.8 1970.6 1050.5 1972 1050.5 1972zM1061.8 1908.5c0 0-14 18 .6 33.3 0 0 33.5-1.3 35.1-18C1099.1 1907.2 1061.8 1908.5 1061.8 1908.5zM1053.9 1843.6c0 0-14 18 .6 33.3 0 0 33.5-1.3 35.1-18C1091.2 1842.2 1053.9 1843.6 1053.9 1843.6z" opacity=".5"></path></g></g><path fill="#febea5" d="M2396.7,1682.9l-87.7,155.6c0,0-158.3,181-136.4,204.7c21.9,23.8,73.1,98.1,163.9,84.9   c90.8-13.2,196.5-420.9,196.5-420.9L2396.7,1682.9z"></path></g><g><path fill="#b7c9e4" d="M2319.1,2262v244.6c0,24.3-19.7,44-44,44H1897c-24.3,0-44-19.7-44-44V2262H2319.1z"></path><path fill="#e5eaf6" d="M2319.1,2261.5v245.1c0,24.3-19.7,44-44,44h-351.3c-24.3,0-43.9-19.7-43.9-44v-245.1H2319.1z"></path><path fill="#b7c9e4" d="M2319.1,2238.1v23.4h-439.3v-23.4c0-24.3,19.7-44,44-44h351.3C2299.4,2194.1,2319.1,2213.8,2319.1,2238.1z       "></path><path fill="#e5eaf6" d="M1923.8,2194.1c-24.3,0-44,19.7-44,44v23.4h-26.8v-23.4c0-24.3,19.7-44,44-44H1923.8z"></path><path fill="#d5d5f1" d="M2022.7 2300.6h-94.8c-4 0-7.3-3.3-7.3-7.3v0c0-4 3.3-7.3 7.3-7.3h94.8c4 0 7.3 3.3 7.3 7.3l0 0C2030.1 2297.3 2026.8 2300.6 2022.7 2300.6zM1964 2363.1h-39.8c-.9 0-1.7-.8-1.7-1.7v-42.1c0-.9.8-1.7 1.7-1.7h39.8c.9 0 1.7.8 1.7 1.7v42.1C1965.7 2362.3 1964.9 2363.1 1964 2363.1zM2026.5 2363.1h-39.8c-.9 0-1.7-.8-1.7-1.7v-42.1c0-.9.8-1.7 1.7-1.7h39.8c.9 0 1.7.8 1.7 1.7v42.1C2028.2 2362.3 2027.4 2363.1 2026.5 2363.1zM2089 2363.1h-39.8c-.9 0-1.7-.8-1.7-1.7v-42.1c0-.9.8-1.7 1.7-1.7h39.8c.9 0 1.7.8 1.7 1.7v42.1C2090.7 2362.3 2089.9 2363.1 2089 2363.1zM2151.5 2363.1h-39.8c-.9 0-1.7-.8-1.7-1.7v-42.1c0-.9.8-1.7 1.7-1.7h39.8c.9 0 1.7.8 1.7 1.7v42.1C2153.2 2362.3 2152.4 2363.1 2151.5 2363.1zM2214 2363.1h-39.8c-.9 0-1.7-.8-1.7-1.7v-42.1c0-.9.8-1.7 1.7-1.7h39.8c.9 0 1.7.8 1.7 1.7v42.1C2215.7 2362.3 2214.9 2363.1 2214 2363.1zM2276.5 2363.1h-39.8c-.9 0-1.7-.8-1.7-1.7v-42.1c0-.9.8-1.7 1.7-1.7h39.8c.9 0 1.7.8 1.7 1.7v42.1C2278.2 2362.3 2277.4 2363.1 2276.5 2363.1zM1964 2431h-39.8c-.9 0-1.7-.8-1.7-1.7v-42.1c0-.9.8-1.7 1.7-1.7h39.8c.9 0 1.7.8 1.7 1.7v42.1C1965.7 2430.2 1964.9 2431 1964 2431zM2026.5 2431h-39.8c-.9 0-1.7-.8-1.7-1.7v-42.1c0-.9.8-1.7 1.7-1.7h39.8c.9 0 1.7.8 1.7 1.7v42.1C2028.2 2430.2 2027.4 2431 2026.5 2431zM2151.5 2431h-39.8c-.9 0-1.7-.8-1.7-1.7v-42.1c0-.9.8-1.7 1.7-1.7h39.8c.9 0 1.7.8 1.7 1.7v42.1C2153.2 2430.2 2152.4 2431 2151.5 2431zM2214 2431h-39.8c-.9 0-1.7-.8-1.7-1.7v-42.1c0-.9.8-1.7 1.7-1.7h39.8c.9 0 1.7.8 1.7 1.7v42.1C2215.7 2430.2 2214.9 2431 2214 2431zM2276.5 2431h-39.8c-.9 0-1.7-.8-1.7-1.7v-42.1c0-.9.8-1.7 1.7-1.7h39.8c.9 0 1.7.8 1.7 1.7v42.1C2278.2 2430.2 2277.4 2431 2276.5 2431zM1964 2498.9h-39.8c-.9 0-1.7-.8-1.7-1.7v-42.1c0-.9.8-1.7 1.7-1.7h39.8c.9 0 1.7.8 1.7 1.7v42.1C1965.7 2498.1 1964.9 2498.9 1964 2498.9zM2026.5 2498.9h-39.8c-.9 0-1.7-.8-1.7-1.7v-42.1c0-.9.8-1.7 1.7-1.7h39.8c.9 0 1.7.8 1.7 1.7v42.1C2028.2 2498.1 2027.4 2498.9 2026.5 2498.9zM2089 2498.9h-39.8c-.9 0-1.7-.8-1.7-1.7v-42.1c0-.9.8-1.7 1.7-1.7h39.8c.9 0 1.7.8 1.7 1.7v42.1C2090.7 2498.1 2089.9 2498.9 2089 2498.9zM2151.5 2498.9h-39.8c-.9 0-1.7-.8-1.7-1.7v-42.1c0-.9.8-1.7 1.7-1.7h39.8c.9 0 1.7.8 1.7 1.7v42.1C2153.2 2498.1 2152.4 2498.9 2151.5 2498.9zM2214 2498.9h-39.8c-.9 0-1.7-.8-1.7-1.7v-42.1c0-.9.8-1.7 1.7-1.7h39.8c.9 0 1.7.8 1.7 1.7v42.1C2215.7 2498.1 2214.9 2498.9 2214 2498.9zM2276.5 2498.9h-39.8c-.9 0-1.7-.8-1.7-1.7v-42.1c0-.9.8-1.7 1.7-1.7h39.8c.9 0 1.7.8 1.7 1.7v42.1C2278.2 2498.1 2277.4 2498.9 2276.5 2498.9zM2089 2431h-39.8c-.9 0-1.7-.8-1.7-1.7v-42.1c0-.9.8-1.7 1.7-1.7h39.8c.9 0 1.7.8 1.7 1.7v42.1C2090.7 2430.2 2089.9 2431 2089 2431z"></path><path fill="#fff" d="M2026.5,2363.1h-39.8c-0.9,0-1.7-0.8-1.7-1.7v-42.1c0-0.9,0.8-1.7,1.7-1.7h39.8c0.9,0,1.7,0.8,1.7,1.7        v42.1C2028.2,2362.3,2027.4,2363.1,2026.5,2363.1z"></path><path fill="#d5d5f1" d="M2001,2349.7c-0.3,0-0.6,0-0.9-0.1c-1.2-0.2-2.2-1-2.9-2l-6.7-10.3c-1.3-2.1-0.7-4.9,1.3-6.2        c2.1-1.4,4.9-0.8,6.2,1.3l4.2,6.5l21.5-14.4c2.1-1.4,4.9-0.8,6.3,1.2c1.4,2.1,0.8,4.9-1.2,6.3l-25.3,17        C2002.7,2349.4,2001.9,2349.7,2001,2349.7z"></path><path fill="#fff" d="M1943.1 2224.5c0 7.2-5.9 13.1-13.1 13.1-7.2 0-13.1-5.9-13.1-13.1 0-7.2 5.9-13.1 13.1-13.1C1937.3 2211.3 1943.1 2217.2 1943.1 2224.5zM2005.6 2224.5c0 7.2-5.9 13.1-13.1 13.1-7.2 0-13.1-5.9-13.1-13.1 0-7.2 5.9-13.1 13.1-13.1C1999.8 2211.3 2005.6 2217.2 2005.6 2224.5zM2068.1 2224.5c0 7.2-5.9 13.1-13.1 13.1-7.2 0-13.1-5.9-13.1-13.1 0-7.2 5.9-13.1 13.1-13.1C2062.3 2211.3 2068.1 2217.2 2068.1 2224.5zM2130.6 2224.5c0 7.2-5.9 13.1-13.1 13.1-7.2 0-13.1-5.9-13.1-13.1 0-7.2 5.9-13.1 13.1-13.1C2124.7 2211.3 2130.6 2217.2 2130.6 2224.5zM2193.1 2224.5c0 7.2-5.9 13.1-13.1 13.1-7.2 0-13.1-5.9-13.1-13.1 0-7.2 5.9-13.1 13.1-13.1C2187.2 2211.3 2193.1 2217.2 2193.1 2224.5zM2255.6 2224.5c0 7.2-5.9 13.1-13.1 13.1-7.2 0-13.1-5.9-13.1-13.1 0-7.2 5.9-13.1 13.1-13.1C2249.7 2211.3 2255.6 2217.2 2255.6 2224.5z"></path><g><path fill="#e5eaf6" d="M1930 2221.6L1930 2221.6c-4.8 0-8.6-3.9-8.6-8.6v-26c0-4.8 3.9-8.6 8.6-8.6h0c4.8 0 8.6 3.9 8.6 8.6v26C1938.6 2217.7 1934.7 2221.6 1930 2221.6zM1992.4 2221.6L1992.4 2221.6c-4.8 0-8.6-3.9-8.6-8.6v-26c0-4.8 3.9-8.6 8.6-8.6l0 0c4.8 0 8.6 3.9 8.6 8.6v26C2001 2217.7 1997.2 2221.6 1992.4 2221.6zM2054.8 2221.6L2054.8 2221.6c-4.8 0-8.6-3.9-8.6-8.6v-26c0-4.8 3.9-8.6 8.6-8.6l0 0c4.8 0 8.6 3.9 8.6 8.6v26C2063.5 2217.7 2059.6 2221.6 2054.8 2221.6zM2117.3 2221.6L2117.3 2221.6c-4.8 0-8.6-3.9-8.6-8.6v-26c0-4.8 3.9-8.6 8.6-8.6h0c4.8 0 8.6 3.9 8.6 8.6v26C2125.9 2217.7 2122.1 2221.6 2117.3 2221.6zM2179.7 2221.6L2179.7 2221.6c-4.8 0-8.6-3.9-8.6-8.6v-26c0-4.8 3.9-8.6 8.6-8.6h0c4.8 0 8.6 3.9 8.6 8.6v26C2188.4 2217.7 2184.5 2221.6 2179.7 2221.6zM2242.2 2221.6L2242.2 2221.6c-4.8 0-8.6-3.9-8.6-8.6v-26c0-4.8 3.9-8.6 8.6-8.6l0 0c4.8 0 8.6 3.9 8.6 8.6v26C2250.8 2217.7 2246.9 2221.6 2242.2 2221.6z"></path></g><g><path fill="#e5eaf6" d="M606.1,2448.1l111.7,54.9l111.7-54.9c0,0,45,102.5,40.8,102.5c-4.2,0-84.7,0-84.7,0l-67.8-39.6l-67.8,39.6     c0,0-80.5,0-84.7,0C561.1,2550.6,606.1,2448.1,606.1,2448.1z"></path><path fill="#b7c9e4" d="M565.7,2383.7c0.5,158.9,210.7,209.9,285.5,74.2c25.7-44.8,24.8-107.3-2.7-151.3      C772.7,2176,565,2231.5,565.7,2383.7z"></path><path fill="#e5eaf6" d="M718.7,2239.3c80.2,0.5,144.9,65.9,144.4,146.1c-0.5,80.2-65.9,144.9-146.1,144.4      c-80.2-0.5-144.9-65.9-144.4-146.1C573.1,2303.5,638.5,2238.9,718.7,2239.3z"></path><path fill="#fff" d="M835.2,2385.5c0.2-38.8-18.4-73.3-47.3-94.8c-8.6-6.4-18.1-11.7-28.3-15.5c-4.6-1.8-9.3-3.2-14.1-4.4      c-8.7-2.1-17.7-3.2-27-3.3c-12.1-0.1-23.9,1.7-34.9,5.1c-47.9,14.6-82.8,58.9-83.2,111.6c-0.1,18.3,4,35.7,11.4,51.2      c9.1,19,23.1,35.2,40.4,46.9c4.1,2.7,8.3,5.2,12.7,7.5c9.5,4.8,19.8,8.4,30.6,10.4c7,1.3,14.2,2.1,21.6,2.1      C782,2502.6,834.9,2450.3,835.2,2385.5z"></path><path fill="#b7c9e4" d="M600.5,2384.1c-0.1,18.3,4,35.7,11.4,51.2c9.1,19,23.1,35.2,40.4,46.9c4.1,2.7,8.3,5.2,12.7,7.4      c9.5,4.8,19.8,8.4,30.6,10.4c0.4,0.1,0.9,0.2,1.3,0.2c-3.7-1.9-7.2-4.1-10.6-6.4c-17.3-11.7-31.4-27.9-40.4-46.9      c-7.4-15.5-11.5-32.8-11.4-51.2c0.3-52.7,35.3-97.1,83.2-111.6c11-3.4,22.8-5.1,34.9-5.1c6.9,0,13.6,0.7,20.2,1.8      c-4.2-2.2-8.6-4.2-13.1-5.9c-4.6-1.7-9.3-3.2-14.1-4.4c-8.7-2.1-17.7-3.2-27-3.3c-12.1-0.1-23.9,1.7-34.9,5.1      C635.8,2287.1,600.8,2331.5,600.5,2384.1z" opacity=".2"></path><path fill="#b7c9e4" d="M823.6 2397L823.6 2397c0-.2.1-.4.1-.6 0-.2 0-.4.1-.6l2.9.3v0l0 0-.1 1.2L823.6 2397 823.6 2397zM655.3 2470.8l-1.7 2.3-1-.7 1.7-2.3C654.6 2470.3 654.9 2470.6 655.3 2470.8z"></path><polygon fill="#b7c9e4" points="819.9 2385.8 819.9 2384.6 819.9 2384.6 827.2 2384.7 827.2 2384.7 827.2 2385.9 827.2 2385.9 819.9 2385.8"></polygon><path fill="#b7c9e4" d="M646.6 2463.8l-1.9 2.1-.9-.8 1.9-2.1C646 2463.2 646.3 2463.5 646.6 2463.8zM822.1 2362.5L822.1 2362.5C822.1 2362.5 822.1 2362.5 822.1 2362.5l2.8-.6.2 1.2-2.8.6C822.2 2363.3 822.1 2362.9 822.1 2362.5zM821.8 2408L821.8 2408c0-.2.1-.4.1-.6 0-.2.1-.4.1-.6l2.8.6 0 0 0 0-.3 1.2L821.8 2408 821.8 2408zM806.3 2448.9l-.7 1-2.3-1.7c.2-.3.5-.6.7-1L806.3 2448.9zM782.1 2473.1l-1 .7-1.7-2.3c.3-.2.7-.5 1-.7L782.1 2473.1z"></path><rect width="7.4" height="1.2" x="767.6" y="2292.8" fill="#b7c9e4" transform="rotate(-59.66 771.256 2293.505)"></rect><path fill="#b7c9e4" d="M791 2465.9l-.9.8-1.9-2.1c.3-.3.6-.5.9-.8L791 2465.9zM799.1 2457.8l-.8.9-2.1-1.9c.3-.3.6-.6.8-.9L799.1 2457.8zM638.7 2455.9l-2.1 1.9-.8-.9 2.1-1.9C638.2 2455.3 638.5 2455.6 638.7 2455.9zM823.8 2373.5l2.9-.3.1 1.2-2.8.3C823.9 2374.3 823.8 2373.9 823.8 2373.5zM819.5 2352.9c-.1-.4-.2-.8-.4-1.2l0 0c0 0 0 0 0 0l2.7-.9.4 1.2 0 0 0 0L819.5 2352.9zM631.7 2447.2l-2.3 1.7-.7-1 2.3-1.7C631.2 2446.6 631.5 2446.9 631.7 2447.2z"></path><polygon fill="#b7c9e4" points="806.8 2334.7 806.2 2333.6 812.6 2330 812.6 2330 812.6 2330 813 2330.7 813.2 2331 813.2 2331 813.2 2331"></polygon><path fill="#b7c9e4" d="M616.8 2351.1c-.1.2-.1.4-.2.6l-2.7-.9 0 0 0 0 .4-1.2 2.7.9c0 0 0 0 0 0h0C616.9 2350.8 616.9 2350.9 616.8 2351.1zM815.2 2341.3l2.6-1.2.5 1.1-2.6 1.1C815.5 2342.1 815.3 2341.7 815.2 2341.3zM614 2361.3L614 2361.3c0 .2-.1.4-.1.6 0 .2-.1.4-.1.6l-2.8-.6v0l0 0 .3-1.2L614 2361.3 614 2361.3z"></path><polygon fill="#b7c9e4" points="770.2 2475.3 772.5 2479.4 771.5 2480 767.8 2473.6 768.9 2473"></polygon><path fill="#b7c9e4" d="M750.8 2485.9l.9 2.7-1.2.4-.9-2.7 0 0v0C750 2486.2 750.4 2486.1 750.8 2485.9zM763.1 2285.1l.4.2-1.2 2.6c-.2-.1-.4-.2-.6-.3-.2-.1-.4-.2-.6-.2l1.2-2.6L763.1 2285.1zM612.1 2372.3L612.1 2372.3c0 .2-.1.4-.1.6 0 .2 0 .4-.1.6l-2.9-.3 0 0 0 0 .1-1.2L612.1 2372.3C612.1 2372.3 612.1 2372.3 612.1 2372.3zM780.5 2298.5l1.7-2.3 1 .7-1.7 2.3C781.1 2299 780.8 2298.7 780.5 2298.5zM761.2 2481.9l1.2 2.6-1.1.5v0l0 0-.6-1.5-.5-1.2 0 0 0 0C760.4 2482.3 760.8 2482.1 761.2 2481.9z"></path><polygon fill="#b7c9e4" points="805.6 2436.7 806.2 2435.6 812.6 2439.3 812.6 2439.3 812.6 2439.3 812 2440.4 812 2440.4 812 2440.4"></polygon><path fill="#b7c9e4" d="M804.1 2322l2.3-1.7.7 1-2.3 1.7C804.5 2322.7 804.3 2322.4 804.1 2322zM797 2313.4l2.1-1.9.8.9-2.1 1.9C797.6 2314 797.3 2313.7 797 2313.4zM752.9 2281L752.9 2281 752.9 2281l-.9 2.7c-.2-.1-.4-.1-.6-.2-.2-.1-.4-.1-.6-.2l.9-2.7L752.9 2281zM819 2418.1c.1-.2.1-.4.2-.6l2.7.9 0 0 0 0-.4 1.2-2.7-.9c0 0 0 0 0 0l0 0C818.8 2418.5 818.9 2418.3 819 2418.1zM814.9 2428.5c.1-.2.2-.4.2-.6l2.6 1.2-.5 1.1-2.6-1.2 0 0 0 0C814.7 2428.9 814.8 2428.7 814.9 2428.5zM789.2 2305.5l1.9-2.1.9.8-1.9 2.1C789.8 2306 789.5 2305.8 789.2 2305.5zM616.2 2416.4c.1.4.2.8.4 1.2l0 0 0 0-2.7.9-.4-1.2 0 0v0L616.2 2416.4z"></path><polygon fill="#b7c9e4" points="628.9 2434.6 629.5 2435.7 623.2 2439.3 623.2 2439.3 623.2 2439.3 622.9 2438.8 622.6 2438.2 622.6 2438.2 622.6 2438.2"></polygon><path fill="#b7c9e4" d="M629.4 2320.3l.7-1 2.3 1.7c-.2.3-.5.6-.7 1L629.4 2320.3zM674.5 2284.2L674.5 2284.2l.1.3 1 2.3 0 0 0 0c-.4.2-.7.3-1.1.5l-1.2-2.6L674.5 2284.2 674.5 2284.2zM740.6 2491.6l-1.2.2 0 0 0 0-.6-2.8c.4-.1.8-.2 1.2-.3L740.6 2491.6z"></path><rect width="7.4" height="1.2" x="660.8" y="2475.2" fill="#b7c9e4" transform="rotate(-59.675 664.497 2475.773)"></rect><path fill="#b7c9e4" d="M656.3 2297.8c-.3.2-.7.5-1 .7l-1.7-2.3 1-.7L656.3 2297.8zM647.5 2304.7c-.3.3-.6.5-.9.8l-1.9-2.1.9-.8L647.5 2304.7zM612 2395.8l-2.9.3-.1-1.2 2.8-.3C611.9 2395 611.9 2395.4 612 2395.8z"></path><polygon fill="#b7c9e4" points="615.9 2383.4 615.9 2383.4 615.9 2384.6 615.9 2384.7 608.5 2384.6 608.5 2384.6 608.5 2383.4 608.5 2383.4"></polygon><path fill="#b7c9e4" d="M613.7 2406.8L613.7 2406.8 613.7 2406.8l-2.8.6-.2-1.2 2.8-.6C613.5 2406 613.6 2406.4 613.7 2406.8zM620.6 2427.9l-2.6 1.2-.5-1.1 2.6-1.1C620.3 2427.2 620.4 2427.6 620.6 2427.9z"></path><polygon fill="#b7c9e4" points="623.8 2328.9 623.8 2328.9 623.8 2328.9 630.2 2332.6 629.5 2333.6 623.2 2329.9 623.2 2329.9 623.2 2329.9"></polygon><path fill="#b7c9e4" d="M621.1 2340.2C621.1 2340.2 621.1 2340.2 621.1 2340.2L621.1 2340.2c-.1.2-.2.4-.3.6-.1.2-.2.4-.2.6l-2.6-1.2.5-1.1L621.1 2340.2zM639.6 2312.5c-.3.3-.5.6-.8.9l-2.1-1.9.8-.9L639.6 2312.5zM696.4 2277.4L696.4 2277.4l.6 2.8c-.4.1-.8.2-1.2.2l-.6-2.8L696.4 2277.4 696.4 2277.4zM706.1 2490.5c.2 0 .4 0 .6.1l-.3 2.9-1.2-.1.3-2.9C705.7 2490.4 705.9 2490.5 706.1 2490.5zM673.5 2481.4c.2.1.4.2.5.3.2.1.4.2.6.2l-1.2 2.6-.4-.2-.7-.3L673.5 2481.4zM729 2490.6C729 2490.6 729 2490.6 729 2490.6l.3 2.9-1.2.1-.3-2.8C728.2 2490.6 728.6 2490.6 729 2490.6L729 2490.6zM695.1 2488.7c.2 0 .4.1.6.1v0l0 0-.6 2.8-1.2-.3.6-2.8C694.7 2488.6 694.9 2488.6 695.1 2488.7zM686.1 2283L686.1 2283 686.1 2283c-.4.1-.8.2-1.2.4l-.9-2.7 1.2-.4L686.1 2283zM740.7 2277.7l1.2.3-.6 2.8c-.2 0-.4-.1-.6-.1-.2 0-.4-.1-.6-.1v0l0 0L740.7 2277.7zM683.8 2485.5c.2.1.4.1.6.2.2.1.4.1.6.2l-.9 2.7-1.2-.4v0l0 0L683.8 2485.5zM730.6 2276l-.3 2.9c-.2 0-.4-.1-.6-.1-.2 0-.4 0-.6-.1l.3-2.9L730.6 2276zM708 2278.6c-.4 0-.8.1-1.2.1v0c0 0 0 0 0 0l-.3-2.9 1.2-.1L708 2278.6z"></path><polygon fill="#b7c9e4" points="667.9 2295.7 666.9 2296.3 666.1 2294.9 663.2 2289.9 664.3 2289.3"></polygon><rect width="7.4" height="1.2" x="713.6" y="2489.7" fill="#b7c9e4" transform="matrix(.00587 -1 1 .00587 -1777.225 3192.949)"></rect><rect width="7.4" height="1.2" x="714.8" y="2278.3" fill="#b7c9e4" transform="matrix(.00587 -1 1 .00587 -1564.632 2984.067)"></rect><path fill="#e5eaf6" d="M710.1,2384.6c0,4.1,3.3,7.5,7.4,7.5c4.1,0,7.5-3.3,7.5-7.4c0-4.1-3.3-7.5-7.4-7.5      C713.5,2377.1,710.1,2380.5,710.1,2384.6z"></path><g><polygon fill="#b7c9e4" points="667.1 2320.8 717.5 2380.7 713.5 2384.7 654.1 2333.6 651.1 2317.5"></polygon><path fill="#b7c9e4" d="M716.2,2390.3c-2-0.4-3.7-1.9-4.2-4c-0.7-2.9,1-5.9,4-6.7c2.9-0.7,5.9,1,6.7,4c0.5,2.2-0.3,4.3-1.9,5.6       l17.9,51.6l-4,11.3l-9-8L716.2,2390.3z"></path></g></g><g><path fill="#b7c9e4" d="M2375.9 2236.5c-6.1 10.4 0 28.5 2.5 34.8-1.1 5.2-2.9 14.6-2.5 21.4-4.5-5.1-9.7-9.9-15.7-14.1-3.3-2.3-6.3-4.7-9-7.2 7.6-5.8 12.8-11.1 17.7-21.4 5.7-11.9-17.2-25.9-24.7-13.1-4 6.8-2.7 16.9-.7 24.9-2.2-3.7-4.7-6.9-7.8-10-7.4-13.7-8.5-26.8-8.2-34.8 6.4-6 10.5-11.3 13.9-21.2 3.8-11.1-17.9-21.2-23.2-9.1-4.9 11.1 4.9 29.2 6.5 32.1 0 7.2 1.1 17.5 5.8 28.5-1-.7-1.9-1.5-3-2.2-10.9-7.4-28.2 13.1-16.7 22.4 9.6 7.8 29.1 4.2 35.3 2.8 3.6 3.6 7.7 7.2 12.5 10.6 1.3.9 2.5 1.8 3.7 2.7-3.8-2.1-8.1-3.9-13.7-5.3-12.8-3.2-22 21.9-8.1 26.8 11.2 3.9 27.5-5.3 33.4-9 0 0 7.8 4.1 19.6 32.2-3.7-1.7-8.7-2.4-12.8-2.8-7.9-7.2-14.1-11.6-26.1-14.7-12.8-3.2-22 21.9-8.1 26.8 11.5 4 28.4-5.8 33.9-9.3 5 .5 11.8 1.5 14.3 4.2.1.1.2.1.2.1 6.5 18.9 7.3 34.5 7.3 34.8 0 .8.7 1.3 1.4 1.3.1 0 .2 0 .3-.1.6-.2 1-.7 1-1.4 0-.5-2-39.3-25.4-69.7 0-.1 0-.1-.1-.2-2.4-3.3-.8-15.7 1.2-24.9 8.7-6.4 14.3-11.6 19.6-22.8C2406.3 2237.7 2383.4 2223.8 2375.9 2236.5zM2441.1 2257.2c5.7 9 1 25.2-.9 30.9 1.2 4.5 3.1 12.8 3 18.8 3.8-4.7 8.2-9.1 13.3-13.1 2.9-2.2 5.4-4.4 7.7-6.7-6.9-4.8-11.7-9.3-16.4-18.3-5.4-10.3 14.3-23.5 21.3-12.5 3.8 5.9 3 14.8 1.5 21.9 1.9-3.3 3.9-6.2 6.5-9.1 6-12.4 6.5-24 6-31.1-5.9-5.1-9.7-9.6-13.1-18.2-3.8-9.7 15.1-19.4 20.2-8.9 4.7 9.6-3.2 26-4.6 28.7.3 6.4-.3 15.5-4.1 25.4.8-.7 1.7-1.4 2.6-2.1 9.4-6.9 25.4 10.5 15.6 19.2-8.2 7.2-25.5 4.7-31.1 3.7-3 3.4-6.6 6.6-10.7 9.8-1.1.8-2.1 1.7-3.1 2.6 3.3-2 7-3.7 11.9-5.2 11.2-3.3 20.3 18.6 8.1 23.4-9.8 3.8-24.5-3.7-29.9-6.8 0 0-6.8 3.9-16.2 29.2 3.2-1.6 7.6-2.5 11.2-3 6.7-6.6 12-10.8 22.5-13.9 11.2-3.3 20.3 18.6 8.1 23.4-10.1 3.9-25.3-4.1-30.3-7-4.4.6-10.4 1.8-12.5 4.2-.1.1-.1.1-.2.1-5 16.9-5.2 30.7-5.2 31 0 .7-.5 1.2-1.2 1.2-.1 0-.2 0-.3 0-.5-.1-.9-.6-.9-1.2 0-.4.3-34.8 19.9-62.5 0 0 0-.1.1-.1 2-3 .1-13.9-2-21.9-7.9-5.3-13-9.8-18.2-19.5C2414.4 2259.4 2434.1 2246.2 2441.1 2257.2z"></path><path fill="#b7c9e4" d="M2387.5,2225.5c9.8,9.3,9.1,30.7,8.4,38.3c2.9,5.2,7.8,14.8,9.5,22.2c3.2-7,7.3-13.8,12.4-20.2     c2.8-3.6,5.2-7.1,7.3-10.6c-10-3.8-17.3-7.8-25.9-17.4c-9.9-11,10.3-33.4,22.4-22c6.5,6.1,8.3,17.3,8.7,26.5     c1.2-4.6,2.8-8.9,5.2-13.2c3.6-17.1,0.6-31.6-2.3-40.1c-8.8-4.5-14.9-8.8-21.7-18.3c-7.7-10.8,12.5-28.6,22.1-17.3     c8.8,10.4,4.1,32.9,3.2,36.7c2.3,7.8,4.4,19.2,2.9,32.5c0.8-1.1,1.6-2.2,2.6-3.3c9.4-11.5,34.5,5.1,25.1,18.8     c-7.8,11.4-29.9,13.8-37.1,14.2c-2.7,5.1-6,10.2-10.1,15.4c-1.1,1.4-2.1,2.7-3.1,4.1c3.4-3.5,7.5-6.8,13-10     c12.7-7.6,30.7,16.6,17.2,26.2c-10.9,7.8-31.2,3.1-38.8,1c0,0-7.1,7-10.9,40.9c3.4-3,8.6-5.4,12.8-7.1     c6.2-10.3,11.5-17,23.4-24.1c12.7-7.6,30.7,16.6,17.2,26.2c-11.2,8-32.4,2.8-39.5,0.8c-5.2,2.1-12.2,5.4-14,9.1     c0,0.1-0.1,0.2-0.2,0.2c-0.9,22.4,3.2,39.4,3.2,39.8c0.2,0.8-0.3,1.7-1.1,1.9c-0.1,0-0.3,0-0.4,0c-0.7,0-1.3-0.5-1.5-1.2     c-0.1-0.5-10.4-43,5.1-83.1c0-0.1,0-0.1,0-0.2c1.5-4.3-4.2-17.2-9.2-26.4c-11.4-4.1-19.1-8-28.4-18.3     C2355.2,2236.5,2375.4,2214.1,2387.5,2225.5z"></path><path fill="#e5eaf6" d="M2291.7,2361.3l0.8,2.5l59.5,186.8h106.7l59.5-186.8l0.8-2.5c0-11.7-50.9-21.2-113.6-21.2     C2342.5,2340.1,2291.7,2349.6,2291.7,2361.3z"></path><path fill="#b7c9e4" d="M2291.6,2361.3l0.8,2.5l59.5,186.7h106.7l16.5-51.8c-20.7-0.3-53.6-6.1-95.8-30.1     c-48-27.3-70.6-80.4-80.5-114.7C2294.2,2356.3,2291.6,2358.8,2291.6,2361.3z" opacity=".5"></path></g><g><rect width="2246.8" height="141.2" x="376.6" y="2549.7" fill="#e5eaf6"></rect><path fill="#b7c9e4" d="M2632.6,2581.5H367.4c-12.1,0-22-9.8-22-22c0-12.1,9.8-22,22-22h2265.1c12.1,0,22,9.8,22,22    C2654.5,2571.7,2644.7,2581.5,2632.6,2581.5z"></path></g></g></svg>