<svg xmlns="http://www.w3.org/2000/svg" viewBox="0 0 1200 1000" id="online-consultation"><g><path fill="#199180" d="M376.765 385.137c-1.562-62.848-27.325-112.228-67.923-141.7s-95.638-38.646-155.753-20.885c3.123 125.5 103.445 198.303 223.676 162.585Z"></path><path fill="#fff" d="M364.078 376.94 169.874 235.238c-.195-.195-.195-.39 0-.39.195-.196.39-.196.39 0l194.79 140.92c.39.194.39.78.195 1.17a1.244 1.244 0 0 1-1.17 0Z"></path><path fill="#fff" d="M252.24 294.769a57.215 57.215 0 0 0-19.127-.196 54.055 54.055 0 0 0-9.37 2.147 50.238 50.238 0 0 0-8.782 3.904.743.743 0 1 1-.586-1.366 64.295 64.295 0 0 1 9.174-3.709 51.942 51.942 0 0 1 9.563-1.951 58.328 58.328 0 0 1 19.323.975.191.191 0 0 1-.195.196ZM311.38 337.708a60.052 60.052 0 0 1-6.832-18.152 54.729 54.729 0 0 1-.585-19.518.805.805 0 1 1 1.561.39 51.252 51.252 0 0 0-.976 9.565 52.698 52.698 0 0 0 .781 9.563 73.538 73.538 0 0 0 6.05 18.152ZM332.069 352.737a57.214 57.214 0 0 0-19.128-.195 54.055 54.055 0 0 0-9.369 2.147 50.239 50.239 0 0 0-8.783 3.903.743.743 0 0 1-.585-1.366 64.295 64.295 0 0 1 9.173-3.708 51.942 51.942 0 0 1 9.564-1.952 58.328 58.328 0 0 1 19.323.976c-.195 0 0 0-.195.195ZM222.182 272.909a60.052 60.052 0 0 1-6.83-18.152 54.729 54.729 0 0 1-.586-19.518.805.805 0 0 1 1.561.39 51.252 51.252 0 0 0-.976 9.564 52.7 52.7 0 0 0 .78 9.564 73.538 73.538 0 0 0 6.051 18.151c.196.196 0 .196 0 0Z"></path><path fill="#2ab19f" d="M376.765 385.137c33.375-53.284 39.036-108.715 21.47-155.558s-58.36-85.099-118.474-103.25c-66.557 106.373-23.032 222.31 97.004 258.808Z"></path><path fill="#fff" d="m370.714 371.279-83.927-225.237c0-.195 0-.39.195-.39s.39 0 .39.195l84.708 224.846a.743.743 0 0 1-1.366.586Z"></path><path fill="#fff" d="M322.7 241.29a61.19 61.19 0 0 0-15.81-10.735 49.62 49.62 0 0 0-8.978-3.318 39.187 39.187 0 0 0-9.368-1.562.78.78 0 1 1 0-1.561 51.943 51.943 0 0 1 9.563 1.951 45.695 45.695 0 0 1 8.979 3.709 53.127 53.127 0 0 1 15.614 11.515ZM348.269 309.602a63.507 63.507 0 0 1 4.293-18.932 73.088 73.088 0 0 1 4.294-8.783 55.935 55.935 0 0 1 6.051-7.807c.195-.39.78-.39 1.171 0 .39.195.39.78 0 1.17a55.708 55.708 0 0 0-6.05 7.417 70.715 70.715 0 0 0-4.685 8.393 60.552 60.552 0 0 0-4.88 18.542s0 .195-.194 0ZM357.247 333.61a61.19 61.19 0 0 0-15.81-10.735 49.619 49.619 0 0 0-8.978-3.318 39.188 39.188 0 0 0-9.369-1.562.78.78 0 0 1 0-1.561 51.943 51.943 0 0 1 9.564 1.951 45.698 45.698 0 0 1 8.978 3.709 50.705 50.705 0 0 1 15.615 11.515ZM309.623 206.352a63.507 63.507 0 0 1 4.294-18.932 73.088 73.088 0 0 1 4.294-8.783 55.935 55.935 0 0 1 6.05-7.807c.196-.39.781-.39 1.171 0 .39.195.39.78 0 1.17a55.705 55.705 0 0 0-6.05 7.417 70.712 70.712 0 0 0-4.684 8.393 60.551 60.551 0 0 0-4.88 18.542s0 .195-.195 0Z"></path><path fill="#48dbc5" d="M376.374 384.942c-39.621-48.795-90.173-72.217-140.334-70.655-49.966 1.366-99.346 27.715-136.04 78.462 79.243 97.394 202.987 93.881 276.374-7.807Z"></path><path fill="#fff" d="m361.54 386.113-240.265 6.44a.39.39 0 1 1 0-.78l240.266-7.222a.84.84 0 0 1 .78.781c-.195.39-.39.78-.78.78Z"></path><path fill="#fff" d="M222.768 389.43a63.618 63.618 0 0 0-15.42 11.516 43.728 43.728 0 0 0-6.05 7.417 43.242 43.242 0 0 0-4.489 8.393.743.743 0 0 1-1.366-.586 44.857 44.857 0 0 1 4.88-8.392 58.51 58.51 0 0 1 6.44-7.417 59.419 59.419 0 0 1 15.81-11.125c.195 0 .195 0 .195.195ZM295.765 387.284a64.114 64.114 0 0 1-16.395-10.15 58.097 58.097 0 0 1-6.831-7.026 46.11 46.11 0 0 1-5.465-8.198.743.743 0 1 1 1.366-.585 40.55 40.55 0 0 0 5.075 8.197 55.014 55.014 0 0 0 6.44 7.027 63.879 63.879 0 0 0 16.005 10.735c0-.195 0 0-.195 0ZM321.334 386.503a63.618 63.618 0 0 0-15.42 11.516 43.728 43.728 0 0 0-6.05 7.416 43.242 43.242 0 0 0-4.49 8.393.743.743 0 0 1-1.365-.585 44.857 44.857 0 0 1 4.879-8.393 58.511 58.511 0 0 1 6.441-7.417 59.42 59.42 0 0 1 15.81-11.125c.195 0 .195 0 .195.195ZM185.684 390.407a64.114 64.114 0 0 1-16.395-10.15 58.098 58.098 0 0 1-6.831-7.026 46.109 46.109 0 0 1-5.465-8.198.743.743 0 0 1 1.366-.585 40.55 40.55 0 0 0 5.074 8.197 55.015 55.015 0 0 0 6.441 7.027 63.88 63.88 0 0 0 16.005 10.735c-.195-.196-.195 0-.195 0Z"></path><path fill="#5b6f8b" d="M918.388 842.248H230.77V367.18a17.201 17.201 0 0 1 17.176-17.176h653.071a17.2 17.2 0 0 1 17.176 17.176v475.068Z"></path><path fill="#fff" d="M258.277 377.53h632.577v437.202H258.277z"></path><path fill="#4a5b6b" d="M940.053 873.671H209.105a31.612 31.612 0 0 1-31.619-31.619h793.991a31.446 31.446 0 0 1-31.424 31.62Z"></path><path fill="#5b6f8b" d="M523.93 855.325h115.156c4.294 0 7.807-5.856 7.807-13.078h-130.77c0 7.222 3.513 13.078 7.807 13.078Z"></path><path fill="#c8e1ff" d="M848.124 428.857v260.175a11.745 11.745 0 0 1-11.711 11.71h-509.81a11.745 11.745 0 0 1-11.71-11.71V428.857a11.745 11.745 0 0 1 11.71-11.71h509.615a11.788 11.788 0 0 1 11.906 11.71Z"></path><path fill="#ffd1c4" d="M737.457 409.144s33.375-58.75 47.624-25.373-32.986 48.209-32.986 48.209l-14.638-23.812"></path><path fill="#ff9a05" d="M756.975 433.346s-36.89 50.552-71.046 76.901c-12.882 9.954-25.568 16.59-35.327 15.614-39.622-3.903-61.482-27.52-73.388-49.575a124.116 124.116 0 0 1-13.467-39.622l22.055-37.084s54.26 25.569 78.072 59.725l73.192-56.016Z"></path><path fill="#ec8400" d="M685.93 510.247c-12.883 9.954-25.57 16.59-35.328 15.614-39.622-3.903-61.482-27.52-73.388-49.575a132.588 132.588 0 0 1 5.856-37.084 59.938 59.938 0 0 1 6.05-14.053 25.887 25.887 0 0 1 8.978-8.198c3.904-1.952 6.246.39 9.369 3.123 6.05 5.465 10.345 12.687 13.467 20.299 4.1 10.344 5.856 21.47 8.588 32.204s6.636 21.665 14.053 30.058c3.514 4.099 8.393 7.612 13.858 7.612 4.684 0 8.978-2.537 13.467-4.294h.196a12.37 12.37 0 0 1 14.833 4.294Z"></path><path fill="#292561" d="m601.417 619.938 10.539 82.756H428.683l20.493-83.537 152.241.781z"></path><path fill="#ff9a05" d="M601.417 619.938c0 11.32-65.971 14.443-115.742 9.759-22.055-2.147-38.06-5.66-38.06-10.54l3.708-49.575s-19.713-72.802-9.368-126.086a100.307 100.307 0 0 1 6.831-22.446c15.42-34.157 127.452-42.94 155.753-8.003 24.788 30.839-.39 109.106-.39 109.106Z"></path><path fill="#ec8400" d="M594.585 510.442c-9.954 10.345-23.03 17.176-36.694 22.055-13.467 4.88-27.52 8.198-41.378 12.492-7.026 2.342-14.248 5.075-19.518 10.15-5.66 5.464-8.978 13.076-10.344 20.884-1.366 7.612-.195 15.419-.976 23.03-.78 8.003 0 15.42.39 23.422a42.428 42.428 0 0 1-.39 7.027c-22.055-2.147-38.06-5.66-38.06-10.54l3.708-49.576s-19.713-72.802-9.368-126.086a147.723 147.723 0 0 1 17.761-17.175c6.246-5.27 14.053-10.735 20.69-15.42 9.368.781 16.59 8.979 19.712 17.957 3.123 8.783 3.123 18.347 4.1 27.715s3.317 19.128 9.953 25.764c8.588 8.588 22.25 9.564 34.157 7.612 11.906-1.756 23.812-5.855 35.913-5.465 6.636.195 14.053 2.537 16.395 8.588 2.537 6.05-1.562 12.882-6.05 17.566Z"></path><path fill="#5b6f8b" d="M594.585 348.638h-.195a1.207 1.207 0 0 1-.976-1.561c3.123-14.248-14.834-26.935-15.029-27.13a1.272 1.272 0 1 1 1.366-2.147c.781.585 19.518 13.858 16.005 29.862a1.093 1.093 0 0 1-1.17.976Z"></path><path fill="#ffd1c4" d="M579.361 370.889c-1.756 3.903-31.229 4.098-31.229 4.098v16.396c0 5.27-39.426 6.245-39.426.975l-.39-35.522s-10.54-19.713-12.882-36.304 15.42-45.867 56.797-46.452 33.571 82.365 27.13 96.809Z"></path><path fill="#292561" d="M579.556 296.72c-23.03-12.1-63.043 3.514-62.262 10.54.586 7.027 1.757 19.518-3.123 19.128-3.123-.195-2.537-14.444-9.759-7.417-7.417 7.026 5.465 17.761 8.393 27.325s-4.099 30.643-4.099 30.643c-.585-3.318-30.643-48.795-30.643-75.925-.195-14.638 9.564-23.421 20.494-30.057q5.855-3.514 11.71-6.441c5.466-2.733 10.54-5.27 14.054-8.003 10.344-8.197 18.737-27.715 49.575-19.322s5.66 59.53 5.66 59.53Z"></path><path fill="#e44000" d="M527.053 324.436a19.242 19.242 0 0 1-19.323 19.323 9.502 9.502 0 0 1-2.342-.196 19.263 19.263 0 0 0 0-38.255 9.502 9.502 0 0 1 2.342-.195 19.243 19.243 0 0 1 19.323 19.323Z"></path><path fill="#fa5814" d="M522.174 324.436a19.23 19.23 0 0 1-16.981 19.128 9.502 9.502 0 0 1-2.342.195 19.242 19.242 0 0 1-19.323-19.323 19.495 19.495 0 0 1 14.248-18.737 21.275 21.275 0 0 1 5.075-.586 9.502 9.502 0 0 1 2.342.195 20.419 20.419 0 0 1 3.318.781 19.09 19.09 0 0 1 13.663 18.347Z"></path><path fill="#fdd333" d="M508.511 306.09a16.528 16.528 0 0 0-3.318-.782 9.502 9.502 0 0 0-2.342-.195 21.275 21.275 0 0 0-5.075.586c-.78-9.369 0-24.788.78-34.547q5.856-3.513 11.712-6.441c-2.928 13.663-1.952 35.718-1.757 41.378Z"></path><path fill="#5b6f8b" d="M579.361 356.25a58.476 58.476 0 0 1-7.417-.585 1.302 1.302 0 0 1 .586-2.538c.195 0 18.737 3.123 20.689-6.05a1.302 1.302 0 1 1 2.537.585c-1.561 7.222-9.954 8.588-16.395 8.588Z"></path><ellipse cx="571.164" cy="354.884" fill="#5b6f8b" rx="7.612" ry="4.879"></ellipse><path fill="#f0f4f9" d="m675.194 422.416-17.175 125.5a3.774 3.774 0 0 1-3.709 3.319H577.8a3.656 3.656 0 0 1-3.709-4.294l14.834-125.5a3.774 3.774 0 0 1 3.708-3.319h78.658a3.7 3.7 0 0 1 3.903 4.294Z"></path><path fill="#ffd1c4" d="M591.853 492.095s42.94-26.74 43.915 2.342-43.915 22.641-43.915 22.641Z"></path><path fill="#ff9a05" d="M466.157 404.85c-13.467 2.732-27.13 19.518-27.13 56.212 0 42.354 1.561 79.438 22.446 89.002 31.814 14.638 136.43-31.23 136.43-31.23l-3.318-30.057-102.079 16.2s15.81-108.715-26.349-100.127Z"></path><path fill="#c8e1ff" d="m357.442 757.54-25.569 17.956a4.583 4.583 0 0 1-7.221-3.708v-35.913a4.555 4.555 0 0 1 7.221-3.709l25.569 17.957a4.565 4.565 0 0 1 0 7.417ZM824.507 753.831a3.706 3.706 0 0 1-3.709 3.709H374.813a3.706 3.706 0 0 1-3.708-3.709 3.706 3.706 0 0 1 3.708-3.708h445.985a3.839 3.839 0 0 1 3.709 3.708Z"></path><circle cx="590.096" cy="753.831" r="29.277" fill="#fff"></circle><circle cx="590.096" cy="753.831" r="18.152" fill="#c8e1ff"></circle><path fill="#464ae4" d="M853.979 869.377a10.173 10.173 0 0 0 .39 2.733 1.875 1.875 0 0 0 1.757 1.366h56.797a1.25 1.25 0 0 0 1.171-1.561l-2.147-9.174-6.636-28.3a1.608 1.608 0 0 0-1.952-1.367l-19.518 2.147a1.594 1.594 0 0 0-1.561 1.757c-.195 3.708-1.952 12.882-16.2 16.98-10.93 2.928-12.296 10.54-12.101 15.42Z"></path><path fill="#2624bd" d="M873.497 850.64c7.417-4.489 8.588-10.93 8.783-13.858a1.877 1.877 0 0 1 1.561-1.756l19.518-2.147a1.939 1.939 0 0 1 1.952 1.366l3.904 16.2h-35.718Z"></path><path fill="#464ae4" d="M988.067 869.377a10.172 10.172 0 0 0 .39 2.733 1.875 1.875 0 0 0 1.757 1.366h56.798a1.25 1.25 0 0 0 1.17-1.561l-2.146-9.174-6.636-28.3a1.608 1.608 0 0 0-1.952-1.367l-19.518 2.147a1.594 1.594 0 0 0-1.562 1.757c-.195 3.708-1.951 12.882-16.2 16.98-11.125 2.928-12.491 10.54-12.1 15.42Z"></path><path fill="#2624bd" d="M1007.585 850.64c7.417-4.489 8.588-10.93 8.783-13.858a1.877 1.877 0 0 1 1.562-1.756l19.518-2.147a1.939 1.939 0 0 1 1.952 1.366l3.903 16.2h-35.718Z"></path><path fill="#ffd1c4" d="M1057.746 460.476s36.304 18.542 42.16 38.45c3.317 11.516-81.586 85.099-81.586 85.099l-9.759-12.687s54.26-64.019 53.87-64.995-20.494-17.566-20.494-17.566ZM875.839 461.062s-36.303 18.542-42.159 38.45c-3.318 11.516 81.585 85.098 81.585 85.098l9.76-12.686s-54.26-64.02-53.87-64.995 20.494-17.566 20.494-17.566Z"></path><path fill="#292561" d="M983.773 839.71c1.367-17.176 2.928-49.966-.585-63.238-5.075-19.128-20.69-114.766-20.69-114.766l-20.688 49.38s-7.417 47.43-2.147 69.094c6.246 24.788 1.366 47.624-3.513 59.53h-91.54c12.101-32.01 43.33-118.279 43.33-136.235 0-22.25 25.764-147.556 25.764-147.556h104.616s21.47 84.708 16.2 139.358c-5.075 53.284 29.277 81.78 34.937 106.568 3.123 13.272 1.562 28.887-.585 37.865h-85.099Z"></path><path fill="#ba93df" d="M1002.901 463.99a7.016 7.016 0 0 0 .39 2.146c2.343 7.612 21.86 18.933 34.157 25.374 2.537 1.366 4.684 2.537 6.44 3.318a4.896 4.896 0 0 0 6.246-1.562l17.957-24.983a5.2 5.2 0 0 0-.976-7.026 313.69 313.69 0 0 0-54.845-34.157s-11.126 24.398-9.369 36.89Z"></path><path fill="#9859cd" d="M1002.901 463.99a7.016 7.016 0 0 0 .39 2.146c2.343 7.612 21.86 18.933 34.157 25.374-.195-2.342-.39-4.49-.78-6.832a135.267 135.267 0 0 0-3.319-15.419c-1.171-4.489-2.537-8.783-4.099-13.272-1.366-3.708-2.732-9.564-5.465-12.491-5.074-5.465-14.443 7.416-16.785 10.93a41.58 41.58 0 0 0-4.099 9.563Z"></path><path fill="#ba93df" d="M913.704 556.114c0 1.757 6.246 3.123 15.81 3.904 29.276 2.732 88.806 1.366 88.806-3.904 1.367-46.648 8.393-108.325 4.294-120.62-6.636-19.324-95.443-23.227-109.496-.977a14.87 14.87 0 0 0-1.756 5.856c-4.685 25.959 2.342 115.741 2.342 115.741Z"></path><path fill="#ffd1c4" d="M952.935 420.27v-13.078s-12.491.39-14.053-5.465-7.807-53.089 18.347-53.87c31.229-.975 32.01 31.62 32.01 35.523s-3.319 36.89-3.319 36.89c0 2.146-32.985 2.146-32.985 0Z"></path><path fill="#292561" d="M1002.901 393.92c-3.708 4.294-7.222 8.783-10.93 13.077-1.561 1.952-3.123 4.294-5.075 5.855a9.579 9.579 0 0 1-6.05 1.757c-2.343 0-4.49 0-6.832-.195-1.951-.196-4.294-.196-6.05-.976a11.58 11.58 0 0 1-5.66-4.88 14.886 14.886 0 0 1-2.343-8.197 26.21 26.21 0 0 1 1.367-5.27c.78-2.537 1.756-4.88 2.537-7.417a26 26 0 0 0 .976-3.708 4.892 4.892 0 0 0-.976-3.709 3.056 3.056 0 0 0-3.513-.976c-1.171.39-1.757 1.757-2.342 2.733a3.22 3.22 0 0 1-2.928 1.756 3.472 3.472 0 0 1-1.561-1.366 7.433 7.433 0 0 1-.586-1.952c-.39-1.756-.586-3.513-.976-5.27a6.204 6.204 0 0 0-.585-1.756 14.196 14.196 0 0 0-1.757-1.561 134.157 134.157 0 0 0-8.002-6.832c-2.343-1.952-4.88-3.708-6.636-6.245a15.32 15.32 0 0 1 1.756-18.933c4.684-4.88 12.687-6.246 18.933-3.513 6.44 2.732 11.125 9.173 17.956 10.54 3.513.585 7.612-.196 10.735 1.756 3.513 2.147 4.49 6.831 4.684 11.125s-.195 8.588 2.342 12.102c2.147 2.927 5.66 4.489 8.784 6.245s6.245 4.685 6.245 8.198c.39 2.732-1.561 5.27-3.513 7.612Z"></path><path fill="#9859cd" d="M913.704 556.114c0 1.757 6.246 3.123 15.81 3.904-.196-4.685-1.757-9.174-3.514-13.468-2.342-5.855-5.27-11.515-6.245-17.566-2.538-16.98 10.344-32.595 11.32-49.77a37.274 37.274 0 0 0-8.002-24.984c-2.343-2.927-5.856-5.074-7.612-8.002-1.172-1.952-2.147-4.49-4.1-5.855-4.684 25.959 2.343 115.741 2.343 115.741Z"></path><path fill="#ba93df" d="m866.47 468.088 17.957 24.983a4.896 4.896 0 0 0 6.246 1.562c10.344-5.075 37.865-19.323 40.597-28.692 3.513-11.515-9.173-39.23-9.173-39.23a313.691 313.691 0 0 0-54.846 34.156 5.663 5.663 0 0 0-.78 7.221Z"></path><path fill="#fdd333" d="M100.195 868.402a5.332 5.332 0 0 0 1.562 3.708 4.997 4.997 0 0 0 3.708 1.561h284.962a13.494 13.494 0 0 0 13.468-13.467v-48.99a13.494 13.494 0 0 0-13.468-13.467H105.465a5.248 5.248 0 0 0-5.27 5.27 5.332 5.332 0 0 0 1.562 3.708 4.997 4.997 0 0 0 3.708 1.561h284.962a3.083 3.083 0 0 1 3.123 3.123v48.99a3.083 3.083 0 0 1-3.123 3.123H105.465a4.93 4.93 0 0 0-5.27 4.88Z"></path><path fill="#f0f4f9" d="M108.588 808.286h281.644a3.083 3.083 0 0 1 3.123 3.123v48.99a3.083 3.083 0 0 1-3.123 3.123H108.588c8.002-18.542 8.002-36.889 0-55.236Z"></path><path fill="#dde3ea" d="M124.202 824.096h253.343a1.366 1.366 0 0 0 0-2.733H124.202a1.334 1.334 0 0 0-1.366 1.366 1.644 1.644 0 0 0 1.366 1.367ZM124.202 837.173h253.343a1.366 1.366 0 0 0 0-2.733H124.202a1.334 1.334 0 0 0-1.366 1.367 1.466 1.466 0 0 0 1.366 1.366ZM124.202 850.055h253.343a1.366 1.366 0 0 0 0-2.733H124.202a1.334 1.334 0 0 0-1.366 1.366 1.644 1.644 0 0 0 1.366 1.367Z"></path><path fill="#48dbc5" d="M261.023 659.169c-7.417 3.708-16.785 3.904-26.154-.586 4.294-20.103 22.836-29.276 41.378-20.689-2.147 10.15-7.807 17.567-15.224 21.275Z"></path><path fill="#e58c5c" d="M232.722 690.398a2.737 2.737 0 0 1-2.732-2.342c-.196-1.562-5.465-36.304 12.296-67.533a2.712 2.712 0 1 1 4.684 2.733c-16.98 29.667-11.71 63.628-11.71 63.824a2.7 2.7 0 0 1-2.343 3.123c.196.195 0 .195-.195.195Z"></path><path fill="#fa5814" d="M307.866 738.997c-4.098 35.328-29.472 61.482-56.602 58.36a38.681 38.681 0 0 1-18.347-7.223 39.485 39.485 0 0 1-18.347 7.222c-27.13 3.123-52.308-23.031-56.602-58.359-4.098-35.327 14.444-66.556 41.574-69.874a39.238 39.238 0 0 1 18.932 2.537 39.401 39.401 0 0 0 29.082 0 39.236 39.236 0 0 1 18.932-2.537c26.74 3.318 45.477 34.547 41.378 69.874Z"></path><g opacity=".2"><ellipse cx="196.057" cy="701.813" fill="#fff" rx="17.761" ry="12.492" transform="rotate(-50.95 196.057 701.813)"></ellipse><ellipse cx="177.813" cy="728.51" fill="#fff" rx="8.198" ry="5.66" transform="rotate(-48.847 177.813 728.51)"></ellipse></g><path fill="#c8e1ff" d="M918.974 231.53v50.162a11.247 11.247 0 0 0 11.125 11.125h14.638a3.706 3.706 0 0 1 3.709 3.708v16.005a3.622 3.622 0 0 0 6.246 2.537l21.274-21.274a3.71 3.71 0 0 1 2.538-.976h96.614a11.248 11.248 0 0 0 11.125-11.125V231.53a11.247 11.247 0 0 0-11.125-11.125H930.099a11.247 11.247 0 0 0-11.125 11.125Z"></path><path fill="#fff" d="M998.802 241.875h22.641a2.537 2.537 0 0 0 0-5.075h-22.64a2.537 2.537 0 0 0 0 5.075ZM1029.445 241.875h1.757a2.537 2.537 0 0 0 0-5.075h-1.757a2.537 2.537 0 0 0 0 5.075Z"></path><path fill="#fff" d="M1031.397 241.875h36.499a2.537 2.537 0 0 0 0-5.075h-36.499a2.537 2.537 0 0 0 0 5.075ZM947.275 259.246h92.71a2.537 2.537 0 0 0 0-5.075h-92.71a2.537 2.537 0 0 0 0 5.075ZM1051.306 259.246h16.59a2.537 2.537 0 0 0 0-5.075h-16.59a2.537 2.537 0 0 0 0 5.075ZM966.402 276.617h42.354a2.537 2.537 0 0 0 0-5.075h-42.354a2.537 2.537 0 0 0 0 5.075ZM1023.98 276.617h43.916a2.537 2.537 0 0 0 0-5.075h-43.916a2.537 2.537 0 0 0 0 5.075Z"></path></g></svg>