<svg xmlns="http://www.w3.org/2000/svg" xmlns:xlink="http://www.w3.org/1999/xlink" viewBox="0 0 3073.316 2380.421" id="university-students-talking-each-other"><defs><symbol id="a" viewBox="0 0 914.589 1091.899"><path fill="#dbb2b2" d="m6.23229,382.97421s-48.30025-81.01977,236.82701-109.06507c106.1333-10.43934,21.81301-182.29448,151.13303-263.31425,458.0733-48.30025-59.20675,358.35667-59.20675,358.35667L6.23229,382.97421Z"></path><path fill="#ffe9e9" d="m327.19522,305.07059S340.96387,19.94333,492.4191,7.47875c151.45523-12.46458,314.71216-9.34843,373.72069,9.34843s-108.18231,316.28871-108.18231,316.28871l-430.76227-28.0453Z"></path><path fill="#eac5c5" d="m.60164,369.23932h535.37529v104.1031H31.70864c-17.16842,0-31.107-13.93858-31.107-31.107v-72.9961h0Z"></path><path fill="#f7dada" d="m0,368.95156h831.69362s47.57569-81.01977-336.55399-81.01977C15.85856,287.93179,0,368.95156,0,368.95156Z"></path><path fill="#dbb2b2" d="m517.28006,473.34241l.28841-69.1553c.1385-33.21112,18.85958-63.58606,48.5343-78.49942,13.88319-6.97715,30.45925-13.03879,49.33585-15.94288,60.76483-9.34843,130.87809-10.90651,165.15568-73.22941,20.21764-36.75935,56.09061-207.22364,59.20675-216.57207,3.11614-9.34843,10.90651-15.58072,38.95181-9.34843l-74.78748,305.3822-202.89828,157.36532h-83.78705Z"></path><path fill="#eacaca" d="m576.60327,369.23932h256.9655v76.84013c0,15.04684-12.21612,27.26296-27.26296,27.26296h-229.70254c-15.04684,0-27.26296-12.21612-27.26296-27.26296v-49.57717c0-15.04684,12.21612-27.26296,27.26296-27.26296Z"></path><path fill="#eacaca" d="M549.99958 396.99686s-18.69687-62.3229 186.9687-96.60049c105.19445-17.53241 107.507-296.03377 141.78459-289.80148 29.12587 5.29561-45.1841 358.35667-45.1841 358.35667l-283.56919 28.0453zM907.08889 1091.05956c-3.29059 0-6.30723-2.02595-7.22174-5.1109l-145.25665-490.30593c-14.03995-47.3934-43.97429-87.04437-82.2893-109.11757H134.47497c-40.96175 64.60751-65.62147 140.98578-71.37426 221.17249l-27.0358 376.87095c-.27476 3.82975-3.84257 6.73973-7.97467 6.47346-4.12882-.25486-7.25373-3.56653-6.97897-7.39704l27.0358-376.87095c6.01033-83.77683 32.16525-163.57859 75.63841-230.77579 1.35413-2.09366 3.79336-3.37405 6.42534-3.37405h544.21908c1.36151 0 2.69759.34387 3.86472.9951 42.42004 23.68529 75.5039 66.81833 90.76757 118.33971l145.25665 490.30593c1.09659 3.70194-1.24996 7.52713-5.24017 8.54429-.66435.16889-1.3328.2503-1.98977.2503z"></path><path fill="#eacaca" d="M688.71673 1091.8987c-4.0468 0-7.61215-2.71978-8.2806-6.54497l-76.56604-437.95911c-8.81618-50.42814-36.07918-97.16271-76.76698-131.59474l-36.00536-30.4699c-3.42592-2.90008-3.66951-7.82764-.54378-11.00617 3.12737-3.17777 8.4389-3.40296 11.86564-.5044l36.00536 30.4699c43.4748 36.7912 72.60618 86.72788 82.02602 140.61147l76.56604 437.95911c.74227 4.24666-2.36706 8.24835-6.94616 8.93685-.4552.06847-.90795.10194-1.35413.10194zM228.48638 1091.89794c-.21243 0-.42568-.00761-.64057-.02282-4.62503-.32333-8.09196-4.06331-7.74338-8.3541l37.6646-463.57829c3.99349-49.1546 30.12709-94.95797 71.70069-125.66524l28.157-20.79738c3.6285-2.68022 8.91297-2.12333 11.80248 1.24159 2.8887 3.36568 2.28996 8.26737-1.33854 10.94759l-28.157 20.79738c-37.9287 28.01487-61.77152 69.8021-65.41478 114.6469l-37.6646 463.57905c-.33218 4.0907-4.01481 7.20532-8.3659 7.20532z"></path><path fill="#eacaca" d="M729.88025 548.06903H96.61763c-4.13866 0-7.49322-3.11158-7.49322-6.95046s3.35456-6.95046 7.49322-6.95046h633.26262c4.13866 0 7.49322 3.11158 7.49322 6.95046s-3.35456 6.95046-7.49322 6.95046zM864.25958 946.72256H39.50641c-4.93916 0-8.94331-3.71412-8.94331-8.29552s4.00415-8.29552 8.94331-8.29552h824.75317c4.93916 0 8.94331 3.71412 8.94331 8.29552s-4.00415 8.29552-8.94331 8.29552z"></path></symbol><symbol id="f" viewBox="0 0 303.523 269.701"><path fill="#282828" d="M58.60657 166.06341c-5.20571-.05028-10.41143.93171-15.66155 3.30089C29.5166 175.43958-1.51044 189.16217.05727 207.71186c.44374 5.3595 2.20353 11.71723 8.16349 12.44041-7.54247 15.76642-3.63801 35.45336 9.53875 48.0949.51776.50431 1.07956.97458 1.62692 1.45375l61.1666-17.83983v-52.42803c-9.49434-5.52218-16.79996-16.77652-21.94646-33.36964zM289.91927 162.4579c-11.65346-12.90035-29.20803-19.8112-46.59977-19.90288 2.75089-5.78245 1.74499-12.8752-1.71538-18.13708-.56217-.85183-1.10917-1.58241-1.65653-2.2272 1.8042-7.356 2.7805-15.01855 2.7805-22.90635 0-54.83331-46.06757-99.28439-102.88632-99.28439C83.00821 0 36.94064 44.45108 36.94064 99.28454c0 4.43119.32531 8.78785.91708 13.06568 3.3423-.53092 6.9507-.41558 10.51469.26768 1.64172 2.3677 3.97848 4.58455 7.40924 6.62393 2.44038 1.45818 5.51622-.83705 4.71793-3.57447-3.83045-13.15175-2.7953-27.7219 3.03143-40.1345.08882-.20423.39933-.09865.36972.12481-.59141 4.34453 2.45518 9.01176 12.60015 10.50336 3.50514.51524 6.04878-3.10064 4.73237-6.38732-2.02589-5.04553-1.53774-10.9315-.66543-13.62411.25166-.78308 1.2424-.91646 1.77459-.28483 2.7953 3.35116 7.80857 6.39959 12.89622 8.23104 4.27383 1.53894 8.42959-2.54236 6.99511-6.85168-.79866-2.38013-1.36082-4.77889-1.31641-6.95211.04441-1.28204 1.71574-1.76963 2.48443-.74698 5.76788 7.61494 16.37139 11.40976 25.61444 8.78059 2.92817 1.66346 6.50732 2.14395 9.77561 1.31119 4.61394 11.84781 16.04572 21.44831 28.67547 23.526 9.53875 1.56969 21.10376-10.12491 22.16851-12.04095 3.59396-1.29211 7.43885-2.03273 11.47618-2.03273 18.70815 0 33.88155 12.09035 33.88155 30.80464 0 18.32933-19.86172 32.16877-37.31267 35.91923l2.45518 102.72649 39.38261 13.12957c.84307-.19817 1.70094-.38746 2.54364-.6374 9.62757-2.88087 18.47129-9.94995 21.22218-19.62189 17.37693-.65809 33.14174-13.84535 38.259-30.46212 5.10209-16.61826.02925-35.58944-11.62422-48.48976z"></path></symbol><symbol id="j" viewBox="0 0 227.601 259.232"><path fill="#d3a14a" d="M174.94584 153.04349c3.38503-1.15 7.00643-1.82256 10.79059-1.82256 11.10094 0 20.9159 4.27481 27.09447 11.63158.0148-.75828.07398-1.50771.07398-2.27191 0-22.62254-9.19407-43.25075-24.31554-58.8868 22.54183-7.12247 38.75712-26.508 38.75712-49.36985 0-28.89774-25.85287-52.32394-57.73673-52.32394s-57.73655 23.42621-57.73655 52.32394c0 7.03852 1.55195 13.74223 4.33089 19.87213-21.71397.22217-41.68383 7.15012-57.61836 18.62901-6.84385-3.72613-8.38101-10.16038-20.01424-15.04552-8.51399 0 .36954 22.3334 7.25778 24.40577-18.5655.71203-40.6344 10.04287-45.20184 19.39987-4.74481 9.73451 18.97943 4.86726 18.97943 4.86726 0 0-23.72424 14.60178-9.4898 29.20296 2.71993 2.78928 7.19878 2.26011 11.82522.47597-.17737 2.13149-.28076 4.27777-.28076 6.44918 0 8.17861 1.2268 16.08821 3.47362 23.60462 3.16327-.20546 6.48911.09164 9.74098.90315-.62071-10.42984.32533-19.79691 2.54256-28.13073-.16258 7.78544.81288 16.16804 5.89781 16.16804 9.48962 0 23.72424-29.20416 23.72424-29.20416 0 0-9.48962 24.3366 4.74499 29.20416 14.21982 4.86756 22.18708-45.91571 22.18708-45.91571 0 0 11.01216 11.84429 20.50197 6.97703 6.23776-3.20478 4.25709-10.61195 2.18764-15.31026 14.55977-1.02525 34.52962-5.15122 31.29237 11.03116-4.74481 23.73721 14.44158 46.91169 14.44158 46.91169-2.4094-12.02921 6.40052-19.23077 12.5495-23.77608zM205.26277 207.24143c-6.79947 5.2504-15.10668 8.98568-22.94096 10.66931l.88704 37.34404c4.81879 3.82103 9.91835 6.1772 11.66265.95193 3.60661-10.82451-3.60679-25.25867-3.60679-25.25867 0 0 10.82018 14.43416 18.03339 10.82451 7.21339-3.60816-3.60661-14.43416-3.60661-14.43416 0 0 18.04819 3.60965 21.65497-7.21632 2.32062-6.95324-11.73663-10.92504-22.08369-12.88063z"></path></symbol><symbol id="d" viewBox="0 0 1150.199 1035.575"><path fill="#f7c9ba" d="m1149.61277,192.78056c.32424,58.29487-46.83961,105.72152-105.13448,105.72152l-186.06188-29.16308-210.02199,29.16308c12.11899,102.91127-103.48267,246.05473-195.24766,391.63756-27.55725,43.70541-52.96865,87.62755-72.12748,130.74649-23.38899,4.19916-109.53435,16.11745-142.18629-29.3945-24.14545-33.67093-21.79881-52.36644-16.92046-61.53705.92645-1.7598,1.97614-3.16454,2.91804-4.2606,4.70855-3.13401,9.23205-6.76215,13.55464-10.88405,4.02936-3.82866,7.90438-8.12054,11.57869-12.86019.01545-.01545.01545-.03091.03091-.03091,9.03134-6.1444,15.87038-12.96798,18.68025-20.37842,7.4877-19.7765,16.31834-43.0266,26.10614-68.7775,54.08007-142.29428,137.6629-360.88467,189.04136-490.99833,24.74757-62.67909,85.58969-103.60592,152.97771-102.92673l511.85534.40141.95716,173.54129Z"></path><path fill="#f7c9ba" d="m1148.65561,19.23926v176.44388c0,57.72347-46.8088,104.53237-104.53237,104.53237l-185.70683-30.87651-75.64745,30.87651c39.3521,49.47968,58.23315,137.55501,70.78446,237.5946,3.87492,30.95378,9.26295,61.8921,14.94422,92.9386,1.38939,7.53369,2.77887,15.08321,4.18371,22.63235,7.54933,40.98864,15.0523,82.1778,19.69923,123.87655,0,0-13.89443,7.68822-13.89443,7.71913l-103.43631,46.31477-65.42733-142.80386-211.56582-461.75837c-39.39846-85.99101,11.79485-182.51101,98.23363-203.38356,11.10011-2.67079,22.78688-4.10644,34.93678-4.10644h517.42852Z"></path><path fill="#8499b2" d="m855.32874.71336h274.80098c10.22472,0,18.52589,8.30117,18.52589,18.52589v.00002h-311.85276v-.00002c0-10.22472,8.30117-18.52589,18.52589-18.52589Z"></path><path fill="#f28166" d="m572.57717,9.89904l-1.31231.07727s.41686-.12363,1.31231-.07727Z"></path><path fill="#efdbaa" d="m321.49882,942.07819L0,775.80507s5.83216-17.51634,19.08992-34.86017c17.64142-23.08409,48.5501-45.83746,96.45976-26.15913,83.86834,34.4285,96.64914,13.46805,140.77477-22.43858l155.64826,81.80343-52.79432,142.68161-4.50048,12.12115c-5.00148,13.51714-20.55354,19.6545-33.1791,13.1248Z"></path><path fill="#c6836a" d="m321.49882,942.07819L0,775.80507s5.83216-17.51634,19.08992-34.86017l340.08847,175.88734-4.50048,12.12115c-5.00148,13.51714-20.55354,19.6545-33.1791,13.1248Z"></path><path fill="#8499b2" d="m1122.41058,42.39665l-568.68397,5.8029c-22.53892.22999-43.19581,12.61651-54.016,32.3897L168.3264,686.17189l297.95833,155.92638,217.6794-591.28518,438.44645-208.41645Z"></path><path fill="#efdbaa" d="m971.23055,903.35928l-175.06195,132.21585h-187.85192v-35.97164c7.9937-79.93699,115.90863-67.94644,115.90863-67.94644,31.97479-39.96849,38.47392-111.17232,38.47392-111.17232l128.13752-72.5598,70.68149,102.95571,13.9092,16.78682c9.03267,10.91132,7.11427,27.17853-4.19689,35.69184Z"></path><path fill="#c6836a" d="m971.23055,903.35928l-175.06195,132.21585h-187.85192v-35.97164h167.86767l185.33389-148.72285,13.9092,16.78682c9.03267,10.91132,7.11427,27.17853-4.19689,35.69184Z"></path><path fill="#8499b2" d="m1148.65561,19.23926l1.54383,171.36463c0,60.56422-29.33269,109.61161-111.2051,109.61161-237.69947-10.80678-256.22538,0-256.22538,0,0,0,15.43826,32.42034,101.89249,175.99611,81.65149,135.5998,182.17141,271.71329,182.17141,271.71329l-353.53605,152.83873L491.64848,205.37246c-29.35453-92.09581,39.37078-186.13319,136.03167-186.13319h520.97546Z"></path><path fill="none" stroke="#0f0f0f" stroke-linecap="round" stroke-miterlimit="10" stroke-width="2.316" d="m574.35251,466.94867l-76.29583-240.2194c-44.46216-97.02921,26.44574-207.49,133.17041-207.49"></path><line x1="837.575" x2="1149.428" y1="18.467" y2="18.467" fill="none" stroke="#0f0f0f" stroke-miterlimit="10" stroke-width="1.523"></line><rect width="11.366" height="28.502" x="1060.098" fill="#728ba3"></rect><rect width="11.366" height="19.239" x="972.1" fill="#728ba3"></rect><rect width="11.366" height="19.239" x="857.857" fill="#728ba3"></rect><ellipse cx="908.494" cy="8.881" fill="#262626" rx="5.903" ry="7.271"></ellipse><line x1="922.485" x2="922.485" y1="1.485" y2="18.467" fill="none" stroke="#0f0f0f" stroke-miterlimit="10" stroke-width="1.523"></line><line x1="896.24" x2="896.24" y1="2.257" y2="19.239" fill="none" stroke="#0f0f0f" stroke-miterlimit="10" stroke-width="1.523"></line><path fill="none" stroke="#0f0f0f" stroke-miterlimit="10" stroke-width="1.523" d="m1075.38888,16.15161v41.92001c0,67.66754-56.32629,121.7297-123.93692,118.95507l-173.91617-7.13723c-52.70773-2.16304-88.84899,52.44597-66.25892,100.11643l248.42386,524.23379"></path><path fill="none" stroke="#0f0f0f" stroke-miterlimit="10" stroke-width="1.523" d="m1044.44739,138.88574l-26.76843-19.33275c-29.06805-20.99359-31.26247-63.48923-4.51145-87.36525l14.50765-12.94847"></path></symbol><symbol id="h" viewBox="0 0 819.815 1024.643"><path fill="#fdb" d="m813.63952,43.22711l-670.68519-.06796C44.49082,43.15915-24.44407,140.44281,8.19274,233.34007l214.1616,609.58867c20.06973,50.94624,131.22517,60.2092,143.57577,0,13.89443-247.01209-23.15738-552.68954-95.71718-552.68954h413.96462c74.26758,0,134.67471-59.82304,135.39628-134.08712l-5.93431-112.92497Z"></path><path fill="#fdb" d="m205.88505,793.86051c8.49308,38.96447-15.60935,87.16812-40.49094,135.59262h-3.85931c-129.96075-.63774-106.87126,90.55886-106.87126,90.55886h171.5219l156.46874-119.9111c15.74855-8.96303,21.15626-30.17245,11.8221-46.36713l-53.69386-75.74354-134.89738,15.87028Z"></path><path fill="#5380ad" d="m197.94991,845.43892l3.07607-36.9129c.51551-6.18608,5.4004-11.10784,11.58243-11.66984l7.66201-.69655c13.58088-1.23463,25.29032,9.45862,25.29032,23.09549v26.18379h-47.61084Z"></path><path fill="#5380ad" d="m404.66045,889.04247l-171.00241,130.96952H54.6413c-4.52309,0-8.49066-3.21372-9.28398-7.6971-1.19046-6.62577-2.18236-16.86217-.11914-28.01103,2.49959-13.45012,9.40312-28.24908,25.74949-39.6757,39.6757-27.77299,91.25411-19.83785,91.25411-19.83785l35.70813-79.3514s15.87028-43.64327,43.64327-27.77299c27.77299,15.87028,79.3514,7.93514,83.31897-15.87028,3.96757-23.80542,19.83785-23.80542,19.83785-23.80542l53.44329,70.30522,10.15697,13.37069c6.50687,8.57009,4.88003,20.82974-3.68981,27.37633Z"></path><path fill="#f4ba38" d="m344.75,777.99023c.18622.32958,1.65735-24.83921,3.96757-27.77299h-11.90271l3.96757,28.56079,3.96757-.7878Z"></path><path fill="#90d3d3" d="m404.66045,889.04247l-171.00241,130.96952H54.6413c-4.52309,0-8.49066-3.21372-9.28398-7.6971-1.19046-6.62577-2.18236-16.86217-.11914-28.01103h176.51715l176.43796-136.00841,10.15697,13.37069c6.50687,8.57009,4.88003,20.82974-3.68981,27.37633Z"></path><path fill="#f4ba38" d="m548.02436,739.06011c.03091.13908.04636.29324.07717.43232l-.10808.01545c.03091-.15453.03091-.29324.03091-.44777Z"></path><path fill="#632e3a" d="M165.18653 771.92822l.04627 1.49747c-.01545-.03091-.01545-.07727-.01545-.10817-.04627-.46322-.06172-.92607-.03081-1.38929zM548.02436 739.01375c-.18525-1.12696-.38596-2.23847-.55575-3.34998.26242.80282.43222 1.60564.50949 2.42391.03081.30869.04627.61738.04627.92607z"></path><path fill="#fdb" d="m818.271,9.26295c-26.24503,364.34283-100.30622,269.41009-378.23726,280.97625,50.94624,47.85859,50.94624,537.25128,50.94624,537.25128,1.14166,62.40131-162.10168,74.10363-175.99611,10.80602,0,.00075-158.36451-561.02628-159.01403-665.38805-.58867-94.58555,9.26295-163.64551,144.87263-163.64551h517.42852Z"></path><path fill="none" stroke="#efdea8" stroke-miterlimit="10" stroke-width="3.088" d="m685.502,165.18933"></path><path fill="#fdb" d="m489.72323,822.2974l17.11777,153.30809c3.20919,25.63363-11.27105,49.03798-30.33975,49.03798l-339.89175-4.93527v-.0001c0-58.61766,14.4758-88.83476,68.76005-88.83476,70.1289,0,137.55359-25.25697,137.5201-108.57594h146.83358Z"></path><path fill="#5380ad" d="m330.87633,842.13525h5.82242c15.22088,0,26.36046,14.34714,22.58905,29.09337l-8.42952,32.95942-51.57841-3.65016,16.05598-47.26879c2.26105-6.65653,8.51042-11.13384,15.54048-11.13384Z"></path><path fill="#5380ad" d="m515.8299,1008.2971c.87275,8.76817-5.95135,16.34637-14.75949,16.34637H140.89454c-8.92703,0-16.18775-7.26072-16.18775-16.18775v-23.96404c0-76.65348,91.25411-54.75266,138.86495-73.00338,47.61084-18.25073,50.62623-53.40358,50.62623-53.40358l40.62788-1.34884c-7.93514,29.20126,83.31897,54.75242,99.18925,25.55116,10.19668-18.76653,26.93996-18.52848,37.61273-15.94971,5.95135,1.42827,10.27587,6.46716,10.91082,12.53766l11.30748,110.06035,1.98378,19.36176Z"></path><path fill="#185b40" d="m560.45213,338.09779s-16.98208-32.42034-67.92832-47.85859l125.21041-1.05887-57.28209,48.91746Z"></path><polygon fill="#f4ba38" points="501.626 877.843 509.561 838.168 489.723 838.168 493.691 873.876 501.626 877.843"></polygon><path fill="#90d3d3" d="m515.8299,1008.2971c.87275,8.76817-5.95135,16.34637-14.75949,16.34637H140.89454c-8.92703,0-16.18775-7.26072-16.18775-16.18775v-19.52038h389.13933l1.98378,19.36176Z"></path><path fill="none" stroke="#0f0f0f" stroke-linecap="round" stroke-miterlimit="10" stroke-width="2.316" d="m330.8763,842.13534c-7.03004,0-13.27941,4.47732-15.5404,11.13356l-8.07644,23.77702c-6.55805,11.2391-19.23073,25.06719-43.6877,34.44246-47.61087,18.25076-138.86496-3.65038-138.86496,73.00342v23.96397"></path><path fill="#3ba87e" d="m301.08944,9.26295s112.69926,0,139.64923,118.87457c34.151,155.92638,78.54731,57.12154,110.42158,118.87457,31.87427,61.75302,9.10693,91.08571,9.10693,91.08571l145.67143-44.77094h.00011c62.89203,0,113.87609-50.98406,113.87609-113.87609V9.26295L475.54173,0s-106.52396,0-174.45229,9.26295Z"></path><path fill="none" stroke="#0f0f0f" stroke-linecap="round" stroke-miterlimit="10" stroke-width="2.316" d="m318.45328,847.82498c-1.55273-2.96352-2.72526-6.13843-3.46941-9.52847,0,.00075-158.36451-561.02628-159.01403-665.38805-.32785-52.67782,2.58261-97.43826,28.65212-126.7609"></path></symbol><symbol id="e" viewBox="0 0 1137.129 881"><path fill="#491b27" d="m260.96115,370.87641s-19.21676-2.74525,2.74525-63.14078c21.96201-60.39553,30.19777-87.84805,43.92402-85.10279,13.72626,2.74525,13.72626,76.86704-5.4905,101.5743-19.21676,24.70726-19.21676,38.43352-41.17877,46.66927Z"></path><path fill="#f7c9ba" d="M395.98214 245.34898l-114.6699-24.67548c-34.04189-6.60707-62.28145 9.54863-72.9552 40.60436-11.63419 33.85018-7.42506 59.86051 37.15159 86.24009.80233.4748 128.56875 83.71609 183.92354 31.57672 45.70975-40.13317 43.86029-116.39809-33.45003-133.74569zM180.28346 276.56259s-108.94167-28.0324-153.22919-16.27492c-25.83439 6.85853-24.07187 16.45554-18.11796 23.26232 4.57561 5.23105 11.08263 8.38397 17.98357 9.20681 36.07405 4.30133 191.34131 20.9467 153.36358-16.19421z"></path><path fill="#f7c9ba" d="m190.57809,286.77438l-154.62633,3.30987s-14.89384,19.68813,17.37966,27.29844c32.27351,7.6103,148.0699-.51932,148.0699-.51932l-10.82324-30.08899Z"></path><path fill="#f7c9ba" d="m194.44129,310.26395l-124.73844,5.3526s-14.20894,24.62842,22.31995,26.61354c36.52889,1.98512,138.21891-5.36273,138.21891-5.36273l-35.80041-26.60341Z"></path><path fill="#f7c9ba" d="m331.55481,271.03044s-36.46174-40.28527-57.2881-61.92122c-20.82636-21.63594-49.8674-30.15421-67.68568-70.31682-17.81828-40.1626-58.58807,9.5024-30.05302,44.55961,28.53505,35.05721,1.99611,34.55122-8.61947,34.34883-10.28789-.19615-95.59656-3.78678-152.87721,7.35764-5.1043.99308-9.80129,3.73636-12.71374,8.04423-3.39116,5.01595-4.48655,12.18531,6.87662,19.5922,20.97816,13.67426,96.76398,11.61224,117.84334,19.97872,21.07936,8.36647,100.46497,66.6041,107.93573,67.34812,36.40271,3.62539,23.45901,6.60544,63.62162-11.21283,40.1626-17.81828,32.9599-57.77848,32.9599-57.77848Z"></path><path fill="none" stroke="#262626" stroke-linecap="round" stroke-linejoin="round" stroke-width="2.265" d="m190.20745,213.22256c11.942,17.5863,29.60654,31.21883,49.64535,38.31358"></path><line x1="26.551" x2="121.352" y1="260.265" y2="254.775" fill="none" stroke="#262626" stroke-linecap="round" stroke-linejoin="round" stroke-width="2.265"></line><line x1="37.673" x2="121.321" y1="293.732" y2="288.232" fill="none" stroke="#262626" stroke-linecap="round" stroke-linejoin="round" stroke-width="2.265"></line><line x1="68.43" x2="125.67" y1="319.634" y2="315.871" fill="none" stroke="#262626" stroke-linecap="round" stroke-linejoin="round" stroke-width="2.265"></line><path fill="#f7c9ba" d="m363.69861,386.18085c-38.13183-14.89152-37.3101-51.27074-24.15184-90.03424,30.73706-91.36532,17.52163-60.42788,69.64089-185.67474,23.21018-52.32765,52.95883-80.91997,89.09093-70.73723,39.40165,11.10416,59.5217,55.25057,46.36343,94.01407l-83.4745,195.14731c-17.94659,52.61032-54.50073,74.06506-97.46893,57.28483Z"></path><path fill="#d6acaa" d="m568.82794,139.71538c-5.44129,68.65431-50.68764,251.92041-90.97993,258.60259-32.65482,2.45514-65.07813,1.01409-94.4886-2.19544v-.03278c-36.79315-3.39978-94.35471-15.7973-122.39021-25.21826,65.0433-54.43203,54.62853-142.76139,46.67007-148.23074,12.96687,4.05697,31.06808,9.70355,43.91911,13.72265,23.99192-52.84112,47.96314-112.83121,75.88244-163.8535,20.20868-32.09537,30.28959-34.76964,67.92037-28.67802,43.83714,8.58616,68.86318,70.82918,73.46674,95.88349Z"></path><path fill="#c6836a" d="M340.22649 314.60542c-7.33618 29.41027-19.55221 52.20499-31.53916 69.00623-.393-.09835-.75321-.16391-1.11342-.26206-4.88006-1.11362-9.3997-2.19426-13.6245-3.24231 12.41253-15.98247 25.84053-38.9409 33.47155-69.36644 10.02178-40.05452 5.24007-66.91012-.1965-81.97567l1.70291.52413 13.6245 4.25758h.03278c4.61779 18.20951 6.64833 44.99974-2.35817 81.05855zM379.13461 395.63119c-3.43881-.36021-6.84503-.78599-10.21827-1.24455-1.11362-.16371-2.22704-.29485-3.34066-.45856 17.6528-56.5935 13.13315-100.70911 5.3712-129.03854-4.38871-16.04804-10.21827-28.78819-15.26185-37.95842.36021-.81877.75321-1.70311 1.17899-2.62003 1.57198-3.63531 3.47159-7.92567 5.63306-12.80573 15.81875 24.75989 45.72037 88.29658 16.63753 184.12583zM474.57087 299.63822l-12.90387 3.30788c-12.67459-59.44302-64.94515-94.68305-91.40796-109.06055 1.80146-4.0285 3.66809-8.22052 5.60048-12.51088.09815-.1965.1965-.42578.29485-.62228 9.10465 4.91264 20.99326 12.0851 33.50414 21.81203 34.71591 27.01952 57.18299 60.58922 64.91237 97.0738zM516.03346 238.00095l-13.16594 1.93239c-8.74444-70.80749-72.93618-93.66778-107.94694-100.90561 1.57198-3.43901 3.14396-6.81225 4.65058-10.18569.52413-1.1462 1.04805-2.29241 1.57198-3.40602 10.90612 2.42354 24.03927 6.25534 37.49985 12.24882 45.03253 20.01077 71.7574 54.72687 77.39046 100.31611zM552.45247 135.03202c-.03278 4.74892-.65506 11.8886-1.80126 20.79676-38.71162-58.16548-98.613-68.35117-131.10187-69.23531.22908-.42578.42558-.81877.62208-1.21177 1.17919-2.35817 2.35817-4.55243 3.56994-6.68132 1.21177-2.16147 2.42354-4.2248 3.70087-6.18977 33.60249 2.22704 86.42975 14.21379 125.01024 62.52141z"></path><path fill="#d6acaa" d="m889.52518,70.44728c-7.13988,14.90163-14.37771,29.9342-21.71388,44.99974-1.99796,4.12665-4.0285,8.2531-6.05904,12.37975-10.02178,20.60046-20.24005,41.26629-30.65482,61.9649-1.99776,4.0283-4.0283,8.08938-6.09162,12.15047-11.10261,22.00873-22.36894,43.95169-33.86455,65.73114-2.06332,3.99572-4.19202,7.99123-6.32091,11.98695-10.51312,19.84706-21.15717,39.5302-31.96494,58.91889-2.16147,3.86459-4.29036,7.69639-6.45184,11.49561-11.00446,19.58499-22.17244,73.57748-33.47155,92.40926-52.33592.09815-276.99013-2.6856-325.98559-2.78395.68784-16.99774,30.76607-334.03389,67.21582-395.49495,25.18547-8.0566,106.80558-32.57856,144.3708-39.52174,3.63531-.65506,6.87782-1.1464,9.596-1.40827-32.75093,78.60223,131.00372,62.22677,140.829-3.27509,1.96518.29465,4.51964.78599,7.53267,1.37548,30.39296,6.12441,108.07807,26.26631,132.64126,33.73342,11.98695,4.84727,3.93015,27.11787.3932,35.33838Z"></path><path fill="#c6836a" d="M867.8113 115.44703c-1.99796 4.12665-4.0285 8.2531-6.05904 12.37975-8.18773-2.6856-16.47361-5.33842-21.15697-6.87762-95.59997-29.11562-196.99692-42.80549-296.59241-33.07856-18.47157 1.70311-38.41698 4.68356-56.5937 8.38443-18.24229 3.79902-36.58273 8.31866-53.80975 14.73792-.22928.09815-.49134.1965-.72062.26186.58969-2.6856 1.17919-5.33842 1.80146-7.92567.26186-.09835.52393-.1965.78599-.29485 34.71591-12.60903 71.13492-19.45406 107.61951-23.74442 105.62175-11.82304 213.63425 1.86683 315.06398 33.17671l9.66156 2.98045zM813.41177 184.42041c-1.83398-.4585-8.44946-2.09619-10.21826-2.52197-9.62866-2.22705-31.44067-8.08936-40.97144-9.62842-10.0542-1.86719-24.43188-4.74902-34.45386-6.51758-100.04224-15.5415-207.05664-15.46533-306.62329 4.65918-.33813 1.91162-.6748 3.83252-1.00928 5.76123 78.98853-14.65674 164.47266-16.73242 244.12866-8.0625 26.20068 2.78418 56.20044 7.40186 81.94287 13.10059 15.62207 2.91455 38.15479 8.84277 53.74414 13.13281 3.70093.98291 9.72705 2.48926 13.29688 3.73389 2.81641.94971 7.00879 2.29248 11.75757 3.86475 2.06348-4.06152 4.09399-8.12256 6.09155-12.15088l-.85156-.26172c-3.01294-.88428-13.88623-4.2251-16.83398-5.10938zM732.22231 257.38965c-104.42725-15.49365-217.37793-19.27051-322.84009-12.68652-.29321 2.0498-.58472 4.09912-.87329 6.14648 69.0376-3.26416 145.15479-2.00146 213.80127 4.31299 54.13721 4.9126 109.06055 12.83838 162.51025 24.49756 2.12891-3.99561 4.25757-7.99121 6.3208-11.98682-1.80127-.36035-3.43872-.68799-4.78149-.91699-13.42798-2.71826-40.61108-7.43457-54.13745-9.3667zM399.33413 321.10254c-.2998 2.47607-.59521 4.93213-.88574 7.36621 33.34058-1.58643 75.55664-2.8877 108.84058-2.43311 79.65039 2.06299 161.03638 6.28809 239.1145 24.03906 2.16162-3.79932 4.29053-7.63086 6.4519-11.49561-44.41016-9.49805-89.77026-14.37793-135.0647-17.75098-69.80029-4.65576-148.5498-3.82129-218.45654.27441z"></path><path fill="#491b27" d="m756.49072,1.37548c-10.21827,31.34266-47.91443,60.52365-101.1021,60.52365-6.55019,0-13.29687-.42578-20.27283-1.37548-16.57196-2.19426-28.10015-8.81001-34.25734-19.65056-7.33618-12.90387-4.65078-28.13294-2.32539-36.18974,3.63531-.65506,6.87782-1.1464,9.596-1.40827-32.75093,78.60223,131.00372,62.22677,140.829-3.27509,1.96518.29465,4.51964.78599,7.53267,1.37548Z"></path><line x1="717.845" x2="586.841" y1="44.214" y2="96.615" fill="none" stroke="#491b27" stroke-linecap="round" stroke-linejoin="round" stroke-width="1.638"></line><line x1="599.941" x2="622.867" y1="21.288" y2="109.716" fill="none" stroke="#491b27" stroke-linecap="round" stroke-linejoin="round" stroke-width="1.638"></line><path fill="#491b27" d="m1061.60247,543.74277c-6.19546.00125-12.03518-3.76663-14.38008-9.89946-20.18974-52.80672-44.00832-117.63861-67.0415-180.33602-45.27221-123.22905-107.1667-291.70526-122.1781-309.63402-6.16415-4.85516-24.68038-9.04517-20.34381-15.773,4.60338-7.14369,31.3343.52109,38.4805,5.13073,7.73869,4.98794,16.35421,1.99793,53.54201,97.24594,23.02818,58.9834,51.68312,136.98283,79.39485,212.41438,23.00062,62.60347,46.78287,127.34015,66.90121,179.95898,3.0351,7.94036-.94072,16.83773-8.88108,19.87408-1.80753.69145-3.66642,1.01838-5.49399,1.01838ZM859.18775,44.72004c.00501.00251.01002.00626.01503.00877-.00501-.00251-.01002-.00501-.01503-.00877Z"></path><path fill="#ecba7d" d="m727.478,557.26404l294.88738-98.18214h25.65367l85.64329,218.39038c9.57081,24.40557-1.29658,52.0624-24.92166,63.42408l-285.0407,137.08064c-5.92798,2.85086-12.61689,3.71542-19.07491,2.46548l-65.70779-7.17313c-11.22882-2.17332-19.4016-11.91312-19.59219-23.34874l-4.57553-274.53206c-.13604-8.16234,5.00446-15.48209,12.72845-18.1245Z"></path><path fill="#632e3a" d="m730.72964,567.87797l29.96832,1.51471,2.56537,17.95757,41.18272,54.9103c8.14301,10.85735,20.16844,18.14595,33.56135,20.34151l109.35233,17.92661c16.23003,2.66066,32.63629-3.61719,42.94438-16.43266l71.95026-89.45167c3.99382-4.96529,5.6379-11.41865,4.50667-17.68962l-16.72994-92.74208-2.01205-5.13073h-25.65367l-269.06762,92.04945s-21.75204,4.97045-22.56812,16.74662Z"></path><ellipse cx="945.404" cy="593.764" fill="#ecba7d" rx="23.088" ry="21.806"></ellipse><path fill="none" stroke="#491b27" stroke-linecap="round" stroke-linejoin="round" stroke-width="17.958" d="m847.92043,577.08878s44.89392,178.293,134.68176,139.8125c10.26147-5.13073,59.00344-17.95757,14.10952-188.55447"></path><path fill="none" stroke="#262626" stroke-linecap="round" stroke-linejoin="round" stroke-width=".922" d="m390.44643,399.5s21.17704-219.36989,50.65288-317.62268"></path><line x1="835.094" x2="858.182" y1="577.089" y2="569.393" fill="none" stroke="#262626" stroke-linecap="round" stroke-linejoin="round" stroke-width=".855"></line><line x1="983.885" x2="1006.973" y1="528.347" y2="520.651" fill="none" stroke="#262626" stroke-linecap="round" stroke-linejoin="round" stroke-width=".855"></line><polyline fill="none" stroke="#262626" stroke-linecap="round" stroke-linejoin="round" stroke-width=".855" points="812.005 872.106 760.698 569.393 1042.888 464.213"></polyline><path fill="#491b27" d="m745.29448,664.31126c-8.20466,0-15.02143-6.4748-15.36715-14.74961-6.87438-164.39893,57.34747-529.35243,65.82646-564.75901,10.86774-45.38996,19.45445-53.16247,39.3398-59.26774,12.38215-3.79669,35.91514,5.13073,35.91514,5.13073,6.3107,5.69567-30.7844-2.56537-45.31731,61.3045-7.97188,35.03518-71.76138,394.76086-65.00725,556.30632.35574,8.49277-6.24181,15.66653-14.73583,16.02102-.21796.01002-.43716.01378-.65387.01378Z"></path><rect width="38.48" height="53.873" x="724.783" y="641.223" fill="#565656"></rect><line x1="762.575" x2="725.464" y1="642.187" y2="694.143" fill="none" stroke="#262626" stroke-linecap="round" stroke-linejoin="round" stroke-width=".855"></line><line x1="725.384" x2="762.725" y1="642.064" y2="694.343" fill="none" stroke="#262626" stroke-linecap="round" stroke-linejoin="round" stroke-width=".855"></line><path fill="#491b27" d="m627.29888,494.99704s-2.56537,46.1766,76.96101,82.09174c79.52637,35.91514,97.48394,15.3922,97.48394,15.3922,0,0-15.3922-51.30734-71.83027-74.39564-56.43807-23.0883-102.61468-23.0883-102.61468-23.0883Z"></path><path fill="#f7c9ba" d="m841.77394,432.28512c-67.83785-3.37372-70.22546-72.34056-64.02329-105.435,22.06791-88.29867,9.35343-131.81059,28.67129-225.38891,6.7009-35.75775,40.46743-75.60065,77.95161-68.10221,37.49618,7.48981,57.12029,25.55421,55.73795,78.32273l-30.01956,245.04715c-3.02823,67.74383-65.67392,76.40941-68.31799,75.55624Z"></path><path fill="#f7c9ba" d="m781.93975,327.2869l-103.33353,162.57941c-21.63076,31.55647-29.81792,60.48433-1.86887,86.93428,32.54056,30.79514,69.98338-2.2915,102.40866-37.30099,0,0,108.87455-122.97042,119.01046-136.9027,21.55104-29.6229,10.63434-72.33582-19.92435-93.28161-31.55399-21.62764-74.66533-13.58135-96.29238,17.97161Z"></path><path fill="#f7c9ba" d="m659.84478,530.74347l-8.52302,85.69098c-.60825,6.11541.73476,12.25948,3.8414,17.56202,9.8616,16.83213,31.72378,53.98772,33.70452,55.96846,2.56537,2.56537,46.1766,20.52294,46.1766,20.52294,0,0,20.52294,2.56537,23.0883,0l25.65367,7.6961s15.3922,2.56537,15.3922-5.13073c0,0,17.95757,0,12.82683-17.95757,0,0-44.0287-30.7844-47.66802-41.04587-3.63932-10.26147-12.01698-88.13994-12.01698-88.13994,5.81229-42.69377-63.45261-114.52404-92.47552-35.16638Z"></path><path fill="none" stroke="#262626" stroke-linecap="round" stroke-linejoin="round" stroke-width=".855" d="M683.73695 646.35369l25.65367 35.91514s33.34977 23.0883 48.74197 28.21904M714.52135 641.22295l28.21904 35.91514s35.91514 25.65367 56.43807 35.91514"></path><path fill="#d6acaa" d="m904.02499,379.63241c0,.05136-.02568.12824-.02568.20527-.33351,4.33548-1.05173,8.54272-2.20618,12.54468l-10.67186,21.31819-5.84911,11.72375-37.06958,74.13901-5.97719,11.92902-40.48156,80.98865c-48.74197-89.78784-174.44495-97.48394-174.44495-97.48394l45.53526-56.30983,9.95364-12.28805,50.05033-61.90232,9.77404-12.05726,24.96097-30.86144v-.02552l.82094-1.00053c1.15445-.92349,2.30889-1.82147,3.46318-2.6936,6.46477-4.92562,12.74995-9.00446,18.85554-12.31389,46.09957-24.98665,81.86079-6.59301,100.10051,22.75479,3.59158,5.74655,6.49045,11.92902,8.69663,18.29108v.02568c3.71981,10.90281,5.33601,22.29304,4.51507,33.01626Z"></path><path fill="#d6acaa" d="m941.78728,99.23784c0,18.16284-2.20633,43.86771-5.56696,72.39473-.5131,4.56627-1.07741,9.1839-1.66739,13.87857-3.07847,24.55058-6.82396,50.53776-10.62066,75.16522-.6927,4.46371-1.38524,8.87623-2.05226,13.2629-3.84805,24.29411-7.61922,46.68971-10.67201,64.36512-.82094,4.84858-1.61619,9.33797-2.33441,13.41682-2.74496,15.72571-4.51507,25.26896-4.51507,25.26896-.07704.89782-.17959,1.77011-.33351,2.64225,0,.05136-.02568.12824-.02568.20527-1.89835,11.56983-8.77351,21.72858-18.54755,29.5274-3.48886,2.82184-7.38827,5.33601-11.54415,7.49083-35.45339,18.41932-90.86525,11.67239-105.38532-46.8693-1.10309-4.33548-1.9497-8.95311-2.53969-13.87857-.12824-1.02621-.25647-2.07794-.35919-3.15535,0,0,.59014-12.05726,1.9497-31.37454v-.02552c.07704-1.18013.17959-2.38593.28215-3.64293l.94917-12.87804c1.35972-16.95719,3.15551-37.24918,5.5156-58.90088l1.46228-12.85251c2.95023-25.47407,6.69557-52.28219,11.33888-77.39708.79526-4.38683,1.61619-8.72231,2.48849-12.98075,5.00234-24.7045,10.92849-47.17713,17.93189-64.31377,1.97538-4.8229,4.02764-9.23541,6.18247-13.13467,4.20724-7.67042,8.74799-13.46818,13.67345-16.8288,48.74197-33.34977,102.51212-15.75139,112.87614,30.7844.35919,1.59051.64134,3.3863.87229,5.41289.43607,4.00197.64134,8.85055.64134,14.41735Z"></path><path fill="none" stroke="#262626" stroke-linecap="round" stroke-linejoin="round" stroke-width=".855" d="m768.39406,320.55209s10.26147-143.66055,23.54606-188.68037"></path><path fill="#c6836a" d="M941.78728 99.23784c-46.305-22.31872-108.77162-21.93386-134.24569-20.65117 1.97538-4.8229 4.02764-9.23541 6.18247-13.13467 10.03067-.35919 23.34493-.41055 38.4293.48743 35.06852 2.10362 64.90375 8.44 88.99258 18.88106.43607 4.00197.64134 8.85055.64134 14.41735zM936.22032 171.63258c-.5131 4.56627-1.07741 9.1839-1.66739 13.87857-52.15395-31.99005-125.39515-30.81008-147.43172-29.62996.79526-4.38683 1.61619-8.72231 2.48849-12.98075 10.69754-.48743 28.80902-.74406 50.25545 1.30836 27.29554 2.59089 64.5704 9.54309 96.35517 27.42378zM923.93227 260.67636c-.6927 4.46371-1.38524 8.87623-2.05226 13.2629-52.28219-25.91014-128.42226-27.75713-147.55995-27.80849l1.46228-12.85251c21.72858.05136 94.37979 2.20618 148.14994 27.3981zM911.20799 338.30439c-.82094 4.84858-1.61619 9.33797-2.33441 13.41682-3.10415-1.79563-6.20814-3.51454-9.36365-5.10506v-.02568c-51.1791-26.24365-108.18148-28.73198-127.65268-28.73198-1.61619 0-2.95008.02552-4.00197.0512l.94917-12.87804c4.54075-.10271 12.15997-.10271 21.90833.51295 24.44787 1.46228 62.51798 6.54181 100.10051 22.75479 6.84964 2.95023 13.67345 6.2595 20.3947 10.00499zM891.12128 413.70056l-5.84911 11.72375c-3.77101-3.00159-7.56786-5.87479-11.36456-8.56839-38.27523-27.3981-77.11492-40.55844-105.38532-46.8693-15.90531-3.56574-28.47551-4.95114-35.68418-5.48977l9.77404-12.05726c6.3107.6927 14.23775 1.82147 23.37045 3.66846 30.83576 6.18247 75.49873 20.4459 119.46915 53.25704 1.89835 1.41092 3.79669 2.84752 5.66952 4.33548zM848.20258 499.56331l-5.97719 11.92902c-68.82884-63.80066-147.91914-71.83027-169.39125-72.80512l9.95364-12.28805c30.88712 2.64225 101.33199 15.13557 165.41481 73.16416z"></path></symbol><symbol id="i" viewBox="0 0 1015.299 868.042"><path fill="#fdb" d="m414.5185,445.44503l-105.96519-205.21882c-13.36346-30.87302-47.92329-66.47734-79.84679-56.33985-30.21918,9.59627-43.05026,36.33609-32.26957,88.8339.19404.9449,59.4236,274.61394,138.28749,285.29,62.8695,10.69179,120.39703-39.75557,79.79406-112.56522Z"></path><path fill="#fdb" d="M315.21257 546.60386c-35.96927-23.03161-26.52224-58.36324-3.73654-93.27448 53.41902-82.34726 32.42335-55.08882 115.99094-165.74948 36.4002-45.91395 73.96298-67.20017 108.97404-49.21088 38.17917 19.61711 48.5834 67.19619 25.7977 102.10744l-132.55482 171.91545c-31.0162 47.36239-73.93997 60.16471-114.47132 34.21195zM66.80926 232.08206s-45.63835 13.38162-59.90034 5.35265c-14.26198-8.02897-11.40959-45.49752 57.04794-45.49752s63.38321 5.35265 119.80067-8.02897c56.41746-13.38162 79.86711 8.02897 65.60513 21.4106-14.26198 13.38162-182.5534 26.76325-182.5534 26.76325z"></path><path fill="#fdb" d="m8.81452,208.65401s-6.41919-30.26059,39.51648-30.26059,63.16154,12.94539,106.22623,7.76723c43.06469-5.17816,86.12938-12.94539,97.61329,2.58908,11.48392,15.53447-182.3882,42.39764-243.356,19.90428Z"></path><path fill="#fdb" d="m48.49681,178.39341s-5.7403-9.1955,34.4418-9.1955,45.9224,12.26067,68.8836,9.1955c22.9612-3.06517,68.8836-18.391,97.5851-9.1955,28.7015,9.1955-60.58826,30.70594-127.87923,32.21139-67.29096,1.50545-73.03126-23.01589-73.03126-23.01589Z"></path><path fill="none" stroke="#262626" stroke-linecap="round" stroke-linejoin="round" stroke-width="1.162" d="M16.43028 201.45998c10.05562-5.59016 25.3482-9.5228 47.52658-9.5228 22.16316 0 36.61912.56103 47.94974.86575M48.331 178.39341c20.59617 0 35.42066 2.60248 49.39037 5.00695"></path><path fill="#441b26" d="m170.53862,4.23341c-.09797-.87746-.16981-1.73081-.27921-2.61885-.17224-1.39706-1.79696-2.0878-2.92834-1.25299-3.96937,2.9285-8.16515,7.20239-13.51257,7.25909.00156.01422.00208.02791.00364.04213,6.28095,5.61323,11.05939.49482,16.71649-3.42938Z"></path><path fill="#632e3a" d="m153.82213,7.66279c3.4447,33.11658-2.31695,57.00642-17.94568,74.77436-3.103,3.52786-2.9209,9.36509.66228,12.40229,1.59218,1.34956,3.54406,2.01307,5.48954,2.01307,2.34586,0,4.68202-.96675,6.36317-2.8614,19.45303-21.92775,26.52177-50.57781,22.14717-89.7577-5.6571,3.9242-10.43554,9.04261-16.71649,3.42938Z"></path><path fill="#a89c54" d="m178.24601,33.54331c-.03369,1.21608-.06737,2.43216-.10106,3.64824,14.17047-9.55754,31.59479-14.17595,48.63033-12.88974-.77106,16.27847-8.91397,32.06373-21.72379,42.11215-10.79234,8.46585-24.72957,12.7341-38.39952,11.98467-7.87692-.43184-8.65807-3.03706-8.21757-10.65786.37217-6.43872,2.22908-12.77711,5.29019-18.44517,3.43021-6.35151,8.40853-11.89389,14.52142-15.75229Z"></path><path fill="#b5354b" d="m153.14825,72.40509s11.34431,2.84059,22.68863,0c11.34431-2.84059,53.88549-25.56535,70.90197,8.52178,17.01647,34.08714-22.19096,100.9092-47.9645,115.78828-25.77354,14.87908-51.29825-2.16449-51.29825-2.16449,0,0-22.03067,15.53844-39.7051,0-17.67443-15.53844-65.22981-71.01487-28.36079-116.46439,36.86902-45.44952,73.73804-5.68119,73.73804-5.68119Z"></path><path fill="#fdb" d="m285.98862,271.54289c13.57678-8.51265,20.86665-24.37281,18.94066-40.48238-2.76959-23.16577-10.89174-57.82266-34.71083-61.8626-36.14392-6.13033-66.26385-3.06517-99.39577,15.32584-33.13192,18.391-42.1679,21.45617-63.25185,18.391-21.08395-3.06517-66.26385,9.1955-66.26385,36.78201s90.66896,8.92849,150.90882,15.05883c0,0,11.7388,27.85351,53.9067,27.85351,17.13095,0,30.28502-5.05887,39.86611-11.06621Z"></path><path fill="none" stroke="#262626" stroke-linecap="round" stroke-linejoin="round" stroke-width="1.162" d="m199.79501,172.02868c-9.54955,2.9192-19.12799,7.03062-28.97233,12.49506-33.13192,18.391-42.1679,21.45617-63.25185,18.391-15.81296-2.29887-45.17988,4.02303-58.87504,18.96571"></path><path fill="#3ba87e" d="m503.94965,221.02088s-40.74109,11.64203-124.88896,117.26984c33.82409,41.69594,62.44448,49.51393,78.0556,161.57178l117.0834-119.87584s70.25004-200.66173-70.25004-158.96579Z"></path><path fill="#3ba87e" d="m858.49306,376.05036c-16.36678,36.93125-29.07904,61.4194-42.78323,85.24444-16.28839,28.22897-47.26249,90.55613-74.17491,136.61408-60.03743,7.95933-274.00241,18.61244-305.32628,5.34689-.67871-16.07784,10.19274-100.28072,15.38726-146.28556,0-.02656,0-.07967.02613-.10623,5.37726-47.91516,13.28646-101.03031,22.23984-136.39632,10.36307-36.00272,20.28226-88.64367,42.60049-104.37675l.02613-.0264c.07839-.02656.13048-.05311.20887-.07967,9.26661-3.21032,22.63146-7.18999,36.75339-11.14309,8.66629-2.41426,17.59355-4.85507,26.0771-7.08376,16.49726-4.35114,50.09986-14.27152,57.25212-15.81037,2.00984-.39787,3.96758.90213,4.35919,2.94491,11.14613,68.13201,108.911,41.36973,124.57294-9.03936,12.60431,3.1561,10.55577,2.75261,19.82239,4.4772,4.80291.90213,9.55371,1.8041,14.27839,2.75918,15.74032,3.15721,30.88017,6.52671,44.92372,9.86965,1.04419.23869,2.01.5041,2.94968.71623,46.17662,11.11654,66.3805,19.02292,66.3805,19.02292,11.90307,10.82457-14.09581,85.58936-55.57372,163.35201Z"></path><path fill="#5380ad" d="m807.33793,461.29054c2.20579,1.26232,4.50602,2.43006,6.9953,3.44004l-56.28272,108.41083-1.67016,2.61961-14.84165,23.82849-1.63843,2.61961,1.29186,6.31219-320.64542,5.34879s.6618-3.21909,1.79614-8.9948v-.06318c.15752-.78902.34657-1.67263.53563-2.58802v-.06299c3.81287-19.12594,19.87963-102.33477,28.70261-145.19442,0-.03159,0-.06318.03154-.09478,12.13177-58.79809,25.68137-122.48809,31.79447-143.5392.12597-.4419.25195-.8838.37811-1.29411,1.41802-4.82873,2.80451-9.59446,4.1908-14.26542v-.03159l.03154-.06318.18906-.63126c12.69894-42.89124,25.61828-72.40086,28.48587-81.04853,9.29572-3.21909,22.65626-7.1958,36.77303-11.17251,8.66547-2.39866,17.58307-4.82892,26.05948-7.06963l-46.16338,101.59475-.37811.9152,214.02121,10.60444.28368-.66266,38.25414-129.87344c4.78951.8838,9.54767,1.799,14.27429,2.74579,15.75539,3.1561,30.88053,6.53314,44.93441,9.8786,1.03991.25254,2.01674.50489,2.93048.72584-5.73499,11.1727-31.76293,63.59542-48.21146,119.80549-.06308.22095-.15752.4419-.2206.69425-1.38648,4.76574-2.67834,9.56306-3.93885,14.36039-.09462.44171-.2206.85202-.34657,1.32551-13.89636,54.94755-24.48394,110.14784,12.38372,131.4199Z"></path><ellipse cx="516.76" cy="276.72" fill="#90d3d3" rx="14.099" ry="12.146" transform="rotate(-43.883 516.76 276.72)"></ellipse><ellipse cx="780.281" cy="292.436" fill="#90d3d3" rx="14.099" ry="12.146" transform="rotate(-43.883 780.281 292.436)"></ellipse><polygon fill="#90d3d3" points="488.01 297.677 487.984 297.731 487.958 298.367 799.239 314.18 799.421 314.18 799.447 313.49 799.474 312.853 747.267 310.2 533.351 299.349 488.193 297.041 488.01 297.677"></polygon><path fill="#90d3d3" d="m795.29708,328.55962c-.10436.42443-.20887.84901-.33935,1.3l-311.54199-16.52882c.13048-.45098.23484-.87557.36548-1.3l311.51586,16.52882Z"></path><polyline fill="none" stroke="#999" stroke-miterlimit="10" stroke-width="1.316" points="716.173 598.958 716.173 572.258 791.141 445.699"></polyline><polygon fill="#90d3d3" points="758.04 573.129 756.396 575.755 428.299 578.21 428.326 575.557 758.04 573.129"></polygon><path fill="#90d3d3" d="M741.53869 599.58951l-1.63843 2.61961-317.55743 2.66619v-.06318c.15752-.78902.34657-1.67263.53563-2.58802l318.66023-2.6346zM565.10809 570.18725l-2.59758-.27205c9.95568-98.11973 34.55752-210.91752 59.31735-266.23383l2.3758 1.09855c-24.64257 55.05333-49.17048 167.57389-59.09557 265.40732z"></path><path fill="#fc6" d="m933.01541,709.9015l-183.15396,158.14075-247.80371-287.9137c-1.54026-1.78957-1.34046-4.49093.44626-6.03365l179.9188-155.34742c2.92675-2.52704,7.34466-2.19924,9.86768.73217l241.45593,280.53845c2.52302,2.93141,2.19574,7.35635-.731,9.8834Z"></path><path fill="#f9f9f9" d="m941.81386,706.3009l-180.27113,158.3158-10.70781-.07912-247.96171-288.09728,177.98623-153.67878c.86941-.75068,1.846-1.36693,2.89738-1.82832l10.96356-4.81131,247.0935,290.17901Z"></path><path fill="#ff7bb1" d="m944.59144,707.8989l-183.15396,158.14075-250.59261-291.15401,183.15396-158.14075c2.92675-2.52704,7.34466-2.19924,9.86768.73217l241.45593,280.53845c2.52302,2.93141,2.19574,7.35635-.731,9.8834Z"></path><path fill="#b5354b" d="m864.83448,682.59472l-119.69904,103.35183-163.77312-190.28176,119.69904-103.35183c1.91276-1.65153,4.80005-1.4373,6.44896.4785l157.8019,183.34403c1.64891,1.9158,1.43501,4.8077-.47774,6.45923Z"></path><path fill="#f9f9f9" d="m870.22792,680.65447l-117.81499,103.46623-6.99802-.05171-162.05372-188.28405,116.32171-100.43574c.5682-.4906,1.20644-.89335,1.89356-1.19489l7.16516-3.1444,161.4863,189.64455Z"></path><path fill="#b5354b" d="m872.04319,681.69883l-119.69904,103.35183-163.77312-190.28176,119.69904-103.35183c1.91276-1.65153,4.80005-1.4373,6.44896.4785l157.8019,183.34403c1.64891,1.9158,1.43501,4.8077-.47774,6.45923Z"></path><polygon fill="#f9f9f9" points="748.907 562.892 657.005 642.117 623.261 602.974 715.163 523.749 748.907 562.892"></polygon><path fill="#183328" d="m811.22702,454.92549c0,9.9706,22.24085,12.76221,98.72415-3.00582,74.58366-15.37642,102.85956-21.92069,105.34825-36.8766,0,0-11.13723-26.41814-111.99095-7.47795-79.63801,14.9559-89.59276,37.38976-92.08145,47.36036Z"></path><path fill="#fdb" d="m942.17251,586.14571c-83.95532,16.17096-73.29008,35.10394-79.78018-84.22708.43123-82.62881-20.127-127.73105-23.25333-214.42341-1.79404-32.9798,19.36476-75.39562,53.9839-76.86123,34.62784-1.47581,55.79438,10.2262,65.93189,57.06192l26.29619,232.05106c11.91065,60.39754-24.272,83.24264-43.17847,86.39874Z"></path><path fill="#3ba87e" d="m811.22702,454.92549s-10.9666-197.07465,37.33032-229.32387c37.33032-24.92651,74.66063-17.44856,99.54751,2.49265,24.88688,19.94121,67.19457,186.94881,67.19457,186.94881-12.44344-24.92651-195.79636,1.95347-204.0724,39.88241Z"></path><path fill="#fdb" d="m877.4759,485.70209l-143.27458,141.47286c-23.91681,25.15159-30.64027,57.46266-9.45324,85.2146,24.66768,32.31103,63.60824,10.90331,97.68344-15.78048,0,0,137.07123-115.56644,148.15483-126.58614,23.56601-23.43014,19.97061-63.29237-4.34714-86.48891-25.10983-23.95174-64.85034-22.98092-88.76332,2.16806Z"></path><path fill="#fdb" d="m761.12164,597.58154s-41.98428,4.01848-75.44099,4.01848c-31.01753,0-66.91342,6.09272-88.20406,6.09272-21.50679,0-9.12456,33.50999,9.12456,33.50999s51.70583,3.04636,51.70583,18.27817-65.73711,24.57271-69.95494,45.69544c-3.04152,15.23181,15.2076,33.50999,27.37367,33.50999,0,0-3.04152,27.41726,27.37367,27.41726,0,0-9.12456,27.41726,27.37367,27.41726,0,0,6.08304,24.3709,24.33215,21.32454,18.24912-3.04636,127.74381-118.80814,127.74381-118.80814,0,0,39.16876-57.48241,0-94.43724-22.86653-21.57405-61.42738-4.01848-61.42738-4.01848Z"></path><line x1="615.726" x2="646.141" y1="738.686" y2="726.501" fill="none" stroke="#262626" stroke-linecap="round" stroke-linejoin="round" stroke-width="1.246"></line><line x1="643.099" x2="673.515" y1="766.104" y2="753.918" fill="none" stroke="#262626" stroke-linecap="round" stroke-linejoin="round" stroke-width="1.246"></line><line x1="670.473" x2="700.888" y1="793.521" y2="781.335" fill="none" stroke="#262626" stroke-linecap="round" stroke-linejoin="round" stroke-width="1.246"></line><path fill="none" stroke="#262626" stroke-linecap="round" stroke-linejoin="round" stroke-width="1.02" d="m810.99997,449.02053c-.65909-19.02446-2.21666-80.31629,2.90037-129.162"></path></symbol><symbol id="c" viewBox="0 0 250.357 332.753"><path fill="#f7c9ba" d="M71.24333 99.72712c0 13.76944-1.80092 24.93178-15.47921 24.93178-24.76674 0-34.05427-15.58236-34.05427-31.16473 0-13.76944 14.59269-18.92194 27.86259-15.58236 12.38337 3.11647 21.6709 8.04587 21.6709 21.81531zM250.35667 231.86297s-50.07133 104.17032-150.214 100.80999C0 329.31262 0 241.94397 0 241.94397l80.11414-23.52233v-84.00832l116.83311-60.48599 3.33809 141.13398 50.07133 16.80166z"></path><path fill="#262626" d="m146.87592,154.57531c-4.00583,19.00404-28.61219,31.78695-66.76178,43.68433v-40.93712c31.47329.97644,66.76178-2.74721,66.76178-2.74721Z"></path><path fill="#f7c9ba" d="m195.07705,81.02829c0,74.79534-60.72687,100.95981-108.3545,87.26123-21.6709-6.23295-34.05427-37.39767-37.15012-90.37771C46.56037,26.36551,80.2731,0,123.87266,0s71.20439,29.39288,71.20439,81.02829Z"></path><path fill="#f7c9ba" d="m235.32301,74.79534c0,21.81531-27.62999,37.39767-46.43764,37.39767s-21.6709-15.34822-21.6709-34.2812,15.24662-34.2812,34.05427-34.2812,34.05427,12.23174,34.05427,31.16473Z"></path><path fill="none" stroke="#262626" stroke-linecap="round" stroke-linejoin="round" stroke-width="3.106" d="M87.18895 84.08378c-.42928 8.45291-.85856 16.90582-1.28784 25.35873-.05469 1.07688-.00572 2.36679.90309 2.9375.67036.42096 1.53496.25591 2.30476.07677 6.9834-1.62511 13.96679-3.25023 20.95019-4.87534M97.83013 122.7131c8.12482 2.63717 17.80635-.868 22.40149-8.11041M184.77254 84.08837c4.27715-10.65033 13.79975-19.01223 24.86234-21.83191M29.7315 91.97181c8.45992 2.89917 16.0175 8.4084 21.39327 15.59499"></path><path fill="#262626" d="M104.24507 46.60106c4.97202-1.13712 10.07632-1.57161 15.14882-1.96985 5.07776-.37035 10.15571-.61119 15.23095-.63877 3.22156.06397 3.45892 4.72428.2624 5.1187-4.93554.46516-9.85089 1.07935-14.72325 1.92199-4.86873.8131-9.66991 1.94996-14.53809 2.73938-4.61847.55411-5.85948-5.9441-1.38082-7.17145h0zM57.41674 65.87989c5.18663-4.98931 12.76334-7.50876 19.75379-8.24468 2.43178-.16547 3.08636 3.24435.79164 4.01254-3.01921 1.004-5.86912 2.36955-8.45467 4.09163-2.58782 1.71995-4.87551 3.76369-7.32831 5.64803-3.68837 2.65195-7.86994-2.22036-4.76246-5.50753h0z"></path><ellipse cx="120.63" cy="75.837" fill="#262626" rx="4.958" ry="7.609" transform="rotate(-22.956 120.63 75.837)"></ellipse><ellipse cx="74.297" cy="90.745" fill="#262626" rx="4.669" ry="6.26" transform="rotate(-22.813 74.297 90.745)"></ellipse><path fill="#262626" d="m190.56933,107.14453c-1.59894,13.49134-8.93683,26.11701-19.81857,34.14843-1.59025,1.17381-.04743,3.87942,1.56247,2.69115,11.8594-8.7531,19.61034-22.144,21.35194-36.83958.23544-1.98717-2.86229-1.97005-3.09584,0Z"></path></symbol><symbol id="g" viewBox="0 0 250.357 332.753"><path fill="#fdb" d="M71.24333 99.72712c0 13.76944-1.80092 24.93178-15.47921 24.93178-24.76674 0-34.05427-15.58236-34.05427-31.16473 0-13.76944 14.59269-18.92194 27.86259-15.58236 12.38337 3.11647 21.6709 8.04587 21.6709 21.81531zM250.35667 231.86297s-50.07133 104.17032-150.214 100.80999C0 329.31262 0 241.94397 0 241.94397l80.11414-23.52233v-84.00832l116.83311-60.48599 3.33809 141.13398 50.07133 16.80166z"></path><path fill="#262626" d="m146.87592,154.57531c-4.00583,19.00404-28.61219,31.78695-66.76178,43.68433v-40.93712c31.47329.97644,66.76178-2.74721,66.76178-2.74721Z"></path><path fill="#fdb" d="m195.07705,81.02829c0,74.79534-60.72687,100.95981-108.3545,87.26123-21.6709-6.23295-34.05427-37.39767-37.15012-90.37771C46.56037,26.36551,80.2731,0,123.87266,0s71.20439,29.39288,71.20439,81.02829Z"></path><path fill="#fdb" d="m235.32301,74.79534c0,21.81531-27.62999,37.39767-46.43764,37.39767s-21.6709-15.34822-21.6709-34.2812,15.24662-34.2812,34.05427-34.2812,34.05427,12.23174,34.05427,31.16473Z"></path><path fill="none" stroke="#262626" stroke-linecap="round" stroke-linejoin="round" stroke-width="3.106" d="M87.18895 84.08378c-.42928 8.45291-.85856 16.90582-1.28784 25.35873-.05469 1.07688-.00572 2.36679.90309 2.9375.67036.42096 1.53496.25591 2.30476.07677 6.9834-1.62511 13.96679-3.25023 20.95019-4.87534M97.83013 122.7131c8.12482 2.63717 17.80635-.868 22.40149-8.11041M184.77254 84.08837c4.27715-10.65033 13.79975-19.01223 24.86234-21.83191M29.7315 91.97181c8.45992 2.89917 16.0175 8.4084 21.39327 15.59499"></path><path fill="#262626" d="M104.24507 46.60106c4.97202-1.13712 10.07632-1.57161 15.14882-1.96985 5.07776-.37035 10.15571-.61119 15.23095-.63877 3.22156.06397 3.45892 4.72428.2624 5.1187-4.93554.46516-9.85089 1.07935-14.72325 1.92199-4.86873.8131-9.66991 1.94996-14.53809 2.73938-4.61847.55411-5.85948-5.9441-1.38082-7.17145h0zM57.41674 65.87989c5.18663-4.98931 12.76334-7.50876 19.75379-8.24468 2.43178-.16547 3.08636 3.24435.79164 4.01254-3.01921 1.004-5.86912 2.36955-8.45467 4.09163-2.58782 1.71995-4.87551 3.76369-7.32831 5.64803-3.68837 2.65195-7.86994-2.22036-4.76246-5.50753h0z"></path><ellipse cx="120.63" cy="75.837" fill="#262626" rx="4.958" ry="7.609" transform="rotate(-22.956 120.63 75.837)"></ellipse><ellipse cx="74.297" cy="90.745" fill="#262626" rx="4.669" ry="6.26" transform="rotate(-22.813 74.297 90.745)"></ellipse><path fill="#262626" d="m190.56933,107.14453c-1.59894,13.49134-8.93683,26.11701-19.81857,34.14843-1.59025,1.17381-.04743,3.87942,1.56247,2.69115,11.8594-8.7531,19.61034-22.144,21.35194-36.83958.23544-1.98717-2.86229-1.97005-3.09584,0Z"></path></symbol><symbol id="b" viewBox="0 0 980.227 853"><path fill="#eacaca" d="m980.2269,88H0L95.44413,6.66507C100.5279,2.33282,106.64681,0,112.92642,0h746.99995c5.9261,0,11.71746,2.07781,16.63314,5.96761l103.66739,82.03239Z"></path><line x1="490.113" x2="490.113" y1="113.5" y2="835" fill="none" stroke="#eacaca" stroke-linecap="round" stroke-linejoin="round" stroke-width="20"></line><path fill="#eacaca" d="m372.61343,830h235.00005c12.69403,0,22.99998,10.30594,22.99998,22.99998v.00002h-281v-.00002c0-12.69403,10.30594-22.99998,22.99998-22.99998Z"></path><path fill="#ffe9e9" d="m0,87h980.2269v39.93906c0,12.72768-10.33326,23.06094-23.06094,23.06094H23.06094C10.33326,150,0,139.66674,0,126.93906v-39.93906H0Z"></path></symbol></defs><use width="914.589" height="1091.899" transform="translate(2131.422 1041.495)" xlink:href="#a"></use><use width="980.227" height="853" transform="translate(1013.643 1238)" xlink:href="#b"></use><use width="914.589" height="1091.899" transform="matrix(-.99936 0 0 1.00009 959.684 1032.579)" xlink:href="#a"></use><use width="250.357" height="332.753" transform="matrix(-.99858 0 0 1.00074 707.684 465.579)" xlink:href="#c"></use><use width="1150.199" height="1035.575" transform="matrix(-.99983 0 0 1.00041 1666.684 1094.579)" xlink:href="#d"></use><use width="1137.129" height="881" transform="matrix(-1.00077 0 0 1 1243.684 681.579)" xlink:href="#e"></use><use width="303.523" height="269.701" transform="matrix(-.99828 0 0 1.00111 707.684 431.579)" xlink:href="#f"></use><use width="250.357" height="332.753" transform="translate(2441.684 466.579)" xlink:href="#g"></use><use width="819.815" height="1024.643" transform="translate(1813.684 1109.579)" xlink:href="#h"></use><use width="1015.299" height="868.042" transform="translate(1878.52 504.443)" xlink:href="#i"></use><use width="227.601" height="259.232" transform="translate(2457.684 359.579)" xlink:href="#j"></use></svg>